<svg width="110" height="35" viewBox="0 0 110 35" fill="none" xmlns="http://www.w3.org/2000/svg">
<g clip-path="url(#clip0_113_469)">
<path d="M31.2627 24.6692C31.0917 24.2579 30.9313 23.8255 30.7602 23.4563L29.969 21.695L29.9369 21.6634C27.5847 16.6009 25.072 11.454 22.4097 6.3915L22.3028 6.18056C22.0355 5.68486 21.7682 5.13642 21.4902 4.63017C21.1481 4.029 20.8166 3.38564 20.2713 2.77392C19.7398 2.13386 19.0708 1.61818 18.3128 1.26409C17.5547 0.909993 16.7263 0.726318 15.8876 0.726318C15.0488 0.726318 14.2205 0.909993 13.4624 1.26409C12.7043 1.61818 12.0354 2.13386 11.5038 2.77392C11.0013 3.38564 10.6271 4.029 10.2849 4.63017C10.0176 5.17861 9.75034 5.7165 9.47234 6.2122L9.36542 6.42314C6.74587 11.4856 4.19048 16.6325 1.83823 21.695L1.77407 21.7583C1.53885 22.3067 1.26086 22.8763 0.993555 23.488C0.822482 23.8571 0.65141 24.2579 0.480337 24.7009C0.0184756 25.8608 -0.129011 27.1194 0.0524117 28.3527C0.233835 29.586 0.737906 30.7514 1.51495 31.734C2.29199 32.7166 3.31518 33.4825 4.48368 33.9562C5.65218 34.43 6.92566 34.5952 8.17861 34.4356C9.37983 34.2797 10.5365 33.885 11.5787 33.2755C12.9686 32.5056 14.3051 31.3876 15.802 29.7739C17.2989 31.3876 18.6675 32.5056 20.0254 33.286C21.3312 34.0421 22.81 34.4594 24.3236 34.4989C26.0764 34.5061 27.7726 33.8875 29.0992 32.7573C30.4257 31.6272 31.2929 30.0617 31.5407 28.3501C31.8271 27.1201 31.7302 25.8334 31.2627 24.6587V24.6692ZM15.909 26.42C14.0699 24.0997 12.8724 21.9692 12.4661 20.1446C12.2978 19.4685 12.2615 18.7669 12.3592 18.0774C12.434 17.5395 12.6372 17.0649 12.9152 16.6642C13.5567 15.7466 14.6794 15.177 15.909 15.177C16.4929 15.1594 17.0721 15.2851 17.5946 15.5429C18.1172 15.8006 18.5666 16.1822 18.9027 16.6536C19.1807 17.0755 19.3839 17.5395 19.448 18.0774C19.5549 18.6892 19.5122 19.3958 19.3411 20.1446C18.9348 21.9376 17.7373 24.0892 15.909 26.42ZM29.5306 27.9809C29.4091 28.85 29.0589 29.6724 28.5149 30.3663C27.9709 31.0603 27.252 31.6015 26.4299 31.936C25.6173 32.2735 24.7192 32.3685 23.8424 32.2735C22.9871 32.1681 22.1317 31.8938 21.255 31.3876C19.7993 30.5001 18.4903 29.3974 17.3738 28.1181C19.6191 25.3759 20.977 22.8763 21.4902 20.6509C21.7361 19.5962 21.7682 18.647 21.6613 17.7716C21.5278 16.9418 21.2141 16.1503 20.7418 15.4513C20.2024 14.6932 19.4826 14.0775 18.6455 13.6582C17.8084 13.2389 16.8797 13.0288 15.941 13.0466C13.963 13.0466 12.1988 13.9536 11.1296 15.4407C10.6483 16.138 10.3372 16.9358 10.2208 17.7716C10.0818 18.6575 10.1139 19.6384 10.3919 20.6509C10.9051 22.8763 12.295 25.4075 14.5083 28.1392C13.4107 29.4429 12.0987 30.5553 10.6271 31.4298C9.73965 31.936 8.89497 32.1997 8.03961 32.3052C6.7094 32.4732 5.36569 32.1166 4.30056 31.3128C3.23543 30.509 2.53498 29.323 2.35144 28.0126C2.24452 27.1688 2.31937 26.3251 2.66151 25.3759C2.76843 25.0384 2.92881 24.7009 3.09989 24.3001C3.33511 23.7517 3.61311 23.1821 3.88041 22.6126L3.92317 22.5388C6.23266 17.5079 8.75598 12.3716 11.3755 7.34072L11.4824 7.12978C11.7497 6.62353 12.0171 6.08564 12.295 5.57939C12.573 5.0415 12.8724 4.5247 13.2573 4.10283C13.5905 3.7105 14.0068 3.395 14.477 3.17851C14.9471 2.96203 15.4596 2.84984 15.9785 2.84984C16.4973 2.84984 17.0098 2.96203 17.48 3.17851C17.9501 3.395 18.3664 3.7105 18.6996 4.10283C19.0738 4.5247 19.3839 5.0415 19.6619 5.57939C19.9292 6.08564 20.1965 6.63408 20.4745 7.12978L20.5814 7.34072C23.1902 12.3716 25.7136 17.5079 28.0658 22.5388L28.0979 22.5704C28.3759 23.1188 28.6111 23.7306 28.8784 24.2579C29.0495 24.6692 29.2205 24.9962 29.3275 25.3442C29.5306 26.2934 29.6375 27.1372 29.5306 27.9809ZM44.4139 26.188C43.6082 26.1996 42.8102 26.0322 42.0791 25.698C41.348 25.3639 40.7025 24.8717 40.1906 24.2579C39.0402 22.95 38.4296 21.2637 38.4799 19.5329C38.4623 17.7644 39.0925 16.0491 40.2547 14.7024C40.7923 14.0808 41.4615 13.583 42.2152 13.2441C42.9689 12.9052 43.7888 12.7333 44.6171 12.7407C45.3965 12.7197 46.1685 12.8945 46.8605 13.2487C47.5525 13.603 48.1419 14.125 48.5731 14.7657L48.6801 13.1099H51.8021V25.8505H48.6694L48.5624 23.9942C48.1178 24.6784 47.5033 25.239 46.7772 25.623C46.0512 26.0069 45.2377 26.2014 44.4139 26.188ZM45.2265 23.1505C45.8467 23.1505 46.392 22.9817 46.9052 22.6759C47.3756 22.3384 47.7605 21.8954 48.0599 21.3575C48.3272 20.8196 48.4662 20.1763 48.4662 19.4591C48.5079 18.8362 48.385 18.2133 48.1095 17.6513C47.834 17.0893 47.4153 16.6074 46.8945 16.2528C46.394 15.9452 45.8162 15.7822 45.2265 15.7822C44.6369 15.7822 44.059 15.9452 43.5586 16.2528C43.0881 16.5903 42.7032 17.0333 42.4038 17.5712C42.1211 18.1644 41.982 18.8143 41.9975 19.4696C41.9559 20.0925 42.0788 20.7154 42.3543 21.2774C42.6298 21.8394 43.0484 22.3213 43.5693 22.6759C44.0718 22.9817 44.6171 23.1505 45.2265 23.1505ZM57.1482 9.67158C57.1482 10.0407 57.084 10.3782 56.9129 10.6524C56.7419 10.9161 56.5066 11.1587 56.1966 11.3274C55.8865 11.4962 55.555 11.5595 55.2129 11.5595C54.8708 11.5595 54.5286 11.4962 54.2185 11.3274C53.9253 11.1664 53.6787 10.934 53.5022 10.6524C53.3366 10.352 53.2554 10.0134 53.2669 9.67158C53.2669 9.29189 53.3418 8.95439 53.5022 8.69072C53.6732 8.37431 53.9192 8.18447 54.2185 8.01572C54.5286 7.84697 54.8601 7.77314 55.2129 7.77314C55.5532 7.7654 55.8898 7.84491 56.1896 8.0039C56.4895 8.16288 56.7424 8.3959 56.9236 8.68017C57.0792 8.98766 57.1563 9.328 57.1482 9.67158ZM53.5129 25.8083V13.0888H56.9129V25.8294H53.5022L53.5129 25.8083ZM66.0012 16.4216V16.4638C65.8408 16.3899 65.6269 16.3583 65.4666 16.3267C65.2527 16.2845 65.0817 16.2845 64.8785 16.2845C63.9269 16.2845 63.2105 16.5587 62.7401 17.1282C62.2269 17.7083 61.9917 18.5204 61.9917 19.5645V25.8188H58.5809V13.0782H61.7137L61.8206 15.0083C62.1627 14.3333 62.569 13.827 63.1464 13.4474C63.7207 13.0784 64.3968 12.8942 65.0816 12.92C65.3276 12.92 65.5628 12.9411 65.7659 12.9833C65.8729 13.0149 65.937 13.0149 66.0012 13.0466V16.4216ZM67.3698 25.8083V7.85751H70.7698V14.713C71.251 14.1013 71.7963 13.6267 72.4806 13.2575C73.5639 12.7336 74.7945 12.585 75.974 12.8356C77.1534 13.0863 78.2129 13.7217 78.9813 14.6392C80.1342 15.9497 80.745 17.6403 80.692 19.3747C80.7096 21.1432 80.0794 22.8585 78.9172 24.2052C78.3796 24.8268 77.7104 25.3246 76.9567 25.6635C76.203 26.0024 75.3831 26.1743 74.5548 26.1669C73.7754 26.1879 73.0034 26.0131 72.3114 25.6589C71.6193 25.3046 71.03 24.7826 70.5987 24.1419L70.4918 25.7977L67.3698 25.8294V25.8083ZM73.9454 23.1505C74.5548 23.1505 75.1001 22.9817 75.6133 22.6759C76.0838 22.3384 76.4687 21.8954 76.7681 21.3575C77.0461 20.8196 77.1744 20.1763 77.1744 19.4591C77.1744 18.7524 77.0461 18.1091 76.7681 17.5712C76.4873 17.0525 76.0928 16.6021 75.6133 16.2528C75.1129 15.9452 74.535 15.7822 73.9454 15.7822C73.3557 15.7822 72.7779 15.9452 72.2774 16.2528C71.7963 16.5903 71.422 17.0333 71.112 17.5712C70.8292 18.1644 70.6901 18.8143 70.7057 19.4696C70.664 20.0925 70.7869 20.7154 71.0624 21.2774C71.3379 21.8394 71.7565 22.3213 72.2774 22.6759C72.7799 22.9817 73.3252 23.1505 73.9454 23.1505ZM81.9751 25.8188V13.0782H85.1078L85.2148 14.7341C85.6085 14.0993 86.1669 13.5799 86.8323 13.2294C87.4978 12.879 88.246 12.7103 88.9998 12.7407C89.8616 12.726 90.7088 12.9623 91.4352 13.42C92.1617 13.8778 92.7352 14.5366 93.0841 15.3142C93.4583 16.1157 93.6615 17.1071 93.6615 18.2145V25.8505H90.2507V18.6575C90.2507 17.7716 90.0476 17.0755 89.6413 16.5587C89.235 16.0524 88.679 15.7782 87.9733 15.7782C87.4601 15.7782 87.011 15.8837 86.6154 16.1157C86.2412 16.3583 85.9311 16.6642 85.6959 17.0966C85.4581 17.5337 85.3401 18.0245 85.3538 18.5204V25.8188H81.9751ZM95.3615 25.8188V7.84697H98.7723V14.7024C99.2343 14.0873 99.8353 13.5869 100.528 13.2408C101.22 12.8948 101.984 12.7128 102.76 12.7091C103.566 12.6974 104.364 12.8649 105.095 13.199C105.826 13.5332 106.472 14.0254 106.984 14.6392C108.128 15.9496 108.735 17.635 108.684 19.3642C108.702 21.1328 108.072 22.8484 106.909 24.1946C106.371 24.8162 105.702 25.314 104.948 25.653C104.195 25.9919 103.375 26.1637 102.547 26.1563C101.767 26.1774 100.995 26.0026 100.303 25.6483C99.6111 25.2941 99.0218 24.7721 98.5905 24.1313L98.4943 25.7872L95.3615 25.8188ZM101.969 23.1505C102.589 23.1505 103.135 22.9817 103.637 22.6759C104.118 22.3384 104.493 21.8954 104.803 21.3575C105.07 20.8196 105.209 20.1763 105.209 19.4591C105.251 18.8362 105.128 18.2133 104.852 17.6513C104.577 17.0893 104.158 16.6074 103.637 16.2528C103.137 15.9452 102.559 15.7822 101.969 15.7822C101.38 15.7822 100.802 15.9452 100.301 16.2528C99.8308 16.5903 99.4459 17.0333 99.1465 17.5712C98.8481 18.1591 98.7081 18.8129 98.7402 19.4696C98.6985 20.0925 98.8214 20.7154 99.0969 21.2774C99.3724 21.8394 99.7911 22.3213 100.312 22.6759C100.814 22.9817 101.328 23.1505 101.969 23.1505Z" fill="#FF385C"/>
</g>
<defs>
<clipPath id="clip0_113_469">
<rect width="109.059" height="33.75" fill="white" transform="translate(0 0.75)"/>
</clipPath>
</defs>
</svg>
