<svg width="110" height="35" viewBox="0 0 110 35" fill="none" xmlns="http://www.w3.org/2000/svg">
<g clip-path="url(#clip0_113_473)">
<path fill-rule="evenodd" clip-rule="evenodd" d="M67.658 27.1435C61.3204 31.9406 52.1345 34.5 44.2255 34.5C33.1359 34.5 23.1524 30.2879 15.5996 23.2825C15.0062 22.7316 15.5378 21.9808 16.2499 22.4098C24.401 27.28 34.4794 30.2099 44.8902 30.2099C51.9113 30.2099 59.6351 28.7182 66.737 25.6225C67.8099 25.1545 68.7071 26.344 67.658 27.1435Z" fill="#FF9900"/>
<path fill-rule="evenodd" clip-rule="evenodd" d="M70.2929 24.0479C69.4859 22.9851 64.938 23.5458 62.8967 23.7944C62.2748 23.8724 62.1799 23.3166 62.7401 22.9169C66.3622 20.299 72.3058 21.0546 72.9989 21.9321C73.692 22.8145 72.8185 28.9327 69.4147 31.8529C68.8925 32.3014 68.394 32.0625 68.6266 31.4677C69.391 29.508 71.1047 25.1155 70.2929 24.0479Z" fill="#FF9900"/>
<path fill-rule="evenodd" clip-rule="evenodd" d="M63.0391 4.4356V1.89082C63.0391 1.50569 63.3239 1.24731 63.6657 1.24731H74.7601C75.1161 1.24731 75.401 1.51057 75.401 1.89082V4.06997C75.3962 4.4356 75.0972 4.91335 74.5655 5.66898L68.8165 14.0979C70.9528 14.0443 73.2077 14.371 75.1446 15.4922C75.5814 15.7457 75.7001 16.1162 75.7333 16.4819V19.1973C75.7333 19.5678 75.3345 20.0016 74.9168 19.7774C71.5035 17.9395 66.9698 17.7396 63.1958 19.7969C62.8112 20.0114 62.4077 19.5824 62.4077 19.2119V16.633C62.4077 16.2186 62.4125 15.5117 62.816 14.8828L69.4764 5.07423H63.68C63.3239 5.07423 63.0391 4.81585 63.0391 4.4356Z" fill="black"/>
<path fill-rule="evenodd" clip-rule="evenodd" d="M22.5685 20.3136H19.1932C18.8704 20.2892 18.6141 20.0406 18.5903 19.7237V1.93467C18.5903 1.57879 18.8799 1.29603 19.2407 1.29603H22.3881C22.7157 1.31065 22.9768 1.56904 23.0005 1.89079V4.21619H23.0623C23.8835 1.96879 25.4264 0.920654 27.5057 0.920654C29.6182 0.920654 30.938 1.96879 31.8874 4.21619C32.7039 1.96879 34.5601 0.920654 36.5492 0.920654C37.9639 0.920654 39.5115 1.52029 40.4562 2.8658C41.5243 4.36244 41.306 6.53671 41.306 8.44286L41.3012 19.6701C41.3012 20.026 41.0116 20.3136 40.6509 20.3136H37.2803C36.9432 20.2892 36.6727 20.0113 36.6727 19.6701V10.2417C36.6727 9.49099 36.7391 7.61897 36.5777 6.90721C36.3261 5.71283 35.5713 5.37645 34.5933 5.37645C33.7768 5.37645 32.9223 5.93708 32.5758 6.83409C32.2292 7.7311 32.2624 9.23261 32.2624 10.2417V19.6701C32.2624 20.026 31.9729 20.3136 31.6121 20.3136H28.2415C27.8997 20.2892 27.6339 20.0113 27.6339 19.6701L27.6291 10.2417C27.6291 8.2576 27.9472 5.33745 25.5498 5.33745C23.124 5.33745 23.2189 8.18447 23.2189 10.2417V19.6701C23.2189 20.026 22.9293 20.3136 22.5685 20.3136" fill="black"/>
<path fill-rule="evenodd" clip-rule="evenodd" d="M84.9521 0.920654C89.9605 0.920654 92.6711 5.33745 92.6711 10.9535C92.6711 16.3794 89.6756 20.6841 84.9521 20.6841C80.0339 20.6841 77.3564 16.2673 77.3564 10.7634C77.3564 5.22532 80.0671 0.920654 84.9521 0.920654ZM84.9806 4.55257C82.493 4.55257 82.3363 8.03335 82.3363 10.2028C82.3363 12.377 82.3031 17.0181 84.9521 17.0181C87.5678 17.0181 87.6913 13.274 87.6913 10.9925C87.6913 9.49099 87.6295 7.69698 87.188 6.27346C86.8083 5.0352 86.0534 4.55257 84.9806 4.55257Z" fill="black"/>
<path fill-rule="evenodd" clip-rule="evenodd" d="M99.1653 20.3136H95.8043C95.4672 20.2892 95.1966 20.0113 95.1966 19.6701L95.1919 1.87616C95.2204 1.54954 95.5005 1.29603 95.8423 1.29603H98.9707C99.265 1.31065 99.5072 1.51541 99.5736 1.79329V4.51356H99.6353C100.58 2.08092 101.905 0.920654 104.235 0.920654C105.75 0.920654 107.226 1.48129 108.176 3.01693C109.059 4.44044 109.059 6.83409 109.059 8.55498V19.753C109.021 20.065 108.741 20.3136 108.408 20.3136H105.023C104.715 20.2892 104.459 20.0552 104.425 19.753V10.0906C104.425 8.14548 104.644 5.29845 102.313 5.29845C101.492 5.29845 100.737 5.86396 100.362 6.72196C99.8869 7.8091 99.8252 8.89136 99.8252 10.0906V19.6701C99.8205 20.026 99.5261 20.3136 99.1654 20.3136" fill="black"/>
<path fill-rule="evenodd" clip-rule="evenodd" d="M54.195 11.8164C54.195 13.1668 54.2283 14.2929 53.5636 15.4922C53.0272 16.4672 52.1727 17.0668 51.228 17.0668C49.932 17.0668 49.1724 16.0528 49.1724 14.5561C49.1724 11.6019 51.7502 11.0656 54.195 11.0656V11.8164ZM57.5988 20.2648C57.3757 20.4696 57.0529 20.4842 56.8013 20.3477C55.6809 19.3922 55.4768 18.9486 54.8644 18.0369C53.013 19.9772 51.698 20.5573 49.3006 20.5573C46.457 20.5573 44.2495 18.7584 44.2495 15.1558C44.2495 12.3429 45.7307 10.427 47.8479 9.49097C49.6804 8.66221 52.2392 8.51596 54.195 8.28683V7.83833C54.195 7.01444 54.2567 6.03943 53.782 5.32768C53.3738 4.68904 52.5857 4.42579 51.8879 4.42579C50.6013 4.42579 49.4573 5.10342 49.1772 6.50744C49.1202 6.81944 48.8971 7.12657 48.5885 7.14119L45.3176 6.78044C45.0423 6.71706 44.7337 6.48793 44.8144 6.05406C45.5645 1.97852 49.1534 0.75 52.3626 0.75C54.0051 0.75 56.1509 1.19851 57.4469 2.47577C59.0895 4.05041 58.9328 6.15156 58.9328 8.43796V13.8395C58.9328 15.4629 59.5879 16.1747 60.2051 17.0522C60.4187 17.3642 60.4662 17.7396 60.1908 17.9736C59.5025 18.5634 58.2777 19.6603 57.6035 20.2746L57.5988 20.2648" fill="black"/>
<path fill-rule="evenodd" clip-rule="evenodd" d="M9.94551 11.8166C9.94551 13.167 9.97874 14.2931 9.31413 15.4924C8.77768 16.4674 7.92792 17.067 6.97847 17.067C5.68247 17.067 4.92766 16.053 4.92766 14.5564C4.92766 11.6021 7.50542 11.0659 9.94551 11.0659V11.8166ZM13.3493 20.2651C13.1262 20.4698 12.8034 20.4844 12.5518 20.3479C11.4314 19.3924 11.232 18.9488 10.6149 18.0372C8.76344 19.9774 7.4532 20.5576 5.05108 20.5576C2.21222 20.5576 0 18.7587 0 15.156C0 12.3431 1.48589 10.4272 3.59842 9.49121C5.43086 8.66245 7.98964 8.5162 9.94551 8.28707V7.83857C9.94551 7.01468 10.0072 6.03967 9.53725 5.32792C9.12423 4.68928 8.33619 4.42603 7.64309 4.42603C6.35658 4.42603 5.20774 5.10366 4.92766 6.50768C4.87069 6.81968 4.64757 7.12681 4.34374 7.14144L1.06813 6.78068C0.792792 6.71731 0.488967 6.48818 0.564923 6.0543C1.31974 1.97876 4.90392 0.750244 8.11307 0.750244C9.75562 0.750244 11.9014 1.19875 13.1974 2.47601C14.8399 4.05065 14.6833 6.1518 14.6833 8.4382V13.8398C14.6833 15.4631 15.3384 16.1749 15.9555 17.0524C16.1739 17.3644 16.2214 17.7398 15.946 17.9738C15.2577 18.5637 14.0329 19.6606 13.3588 20.2748L13.3493 20.2651" fill="black"/>
</g>
<defs>
<clipPath id="clip0_113_473">
<rect width="109.059" height="33.75" fill="white" transform="translate(0 0.75)"/>
</clipPath>
</defs>
</svg>
