<svg width="64" height="64" viewBox="0 0 64 64" fill="none" xmlns="http://www.w3.org/2000/svg">
<path d="M52.6348 20.5205C52.2385 19.9683 51.9219 19.3631 51.6943 18.7227C51.5626 18.026 51.53 17.3142 51.5977 16.6084C51.7626 15.3775 51.5743 14.1251 51.0547 12.9971C50.3307 11.974 49.33 11.1786 48.1699 10.7041C47.5346 10.4164 46.9434 10.0399 46.4141 9.5859C45.9604 9.05629 45.5839 8.46512 45.2959 7.83C44.8215 6.6696 44.0261 5.66854 43.0029 4.9442C41.8753 4.42579 40.6237 4.23785 39.3936 4.4022C38.6875 4.46988 37.9753 4.43736 37.2783 4.3056C36.6375 4.07843 36.0319 3.76198 35.4795 3.3656C34.4744 2.58646 33.2667 2.11246 32 2C30.7332 2.11225 29.5252 2.58611 28.52 3.3652C27.9678 3.76136 27.3626 4.0778 26.7222 4.3052C26.0254 4.43591 25.3137 4.46843 24.6079 4.4018C23.377 4.23722 22.1247 4.42552 20.9966 4.9448C19.9736 5.66899 19.1784 6.66985 18.7041 7.83C18.4164 8.46529 18.0399 9.05647 17.5859 9.5858C17.0563 10.0395 16.4651 10.416 15.83 10.7041C14.6696 11.1785 13.6685 11.9739 12.9442 12.9971C12.4259 14.1247 12.2379 15.3763 12.4022 16.6064C12.4699 17.3125 12.4374 18.0247 12.3056 18.7217C12.0783 19.3626 11.7617 19.9681 11.3651 20.5205C10.5861 21.5256 10.1123 22.7333 10 24C10.1122 25.2668 10.5861 26.4748 11.3652 27.48C11.7615 28.0321 12.0781 28.6374 12.3057 29.2778C12.4374 29.9745 12.47 30.6863 12.4023 31.3921C12.2374 32.623 12.4257 33.8754 12.9453 35.0034C13.6693 36.0265 14.67 36.8219 15.8301 37.2964C16.4654 37.5841 17.0566 37.9606 17.5859 38.4146C18.0396 38.9441 18.416 39.535 18.7041 40.17C18.9862 40.7408 19.3109 41.2896 19.6755 41.8116L14.0605 57.2384C13.9962 57.4154 13.9831 57.607 14.0229 57.7911C14.0626 57.9752 14.1536 58.1444 14.2852 58.2791C14.4169 58.4137 14.5839 58.5085 14.7671 58.5524C14.9502 58.5964 15.1421 58.5877 15.3205 58.5274L20.6281 56.7345L23.5422 61.5206C23.6315 61.6672 23.757 61.7883 23.9067 61.8724C24.0563 61.9565 24.2251 62.0006 24.3967 62.0006C24.4289 62.0006 24.4621 61.9986 24.4953 61.9957C24.6828 61.9772 24.8612 61.906 25.01 61.7904C25.1588 61.6748 25.2718 61.5195 25.3361 61.3424L30.9727 45.8583C31.6446 46.048 32.3558 46.048 33.0277 45.8583L38.6643 61.3424C38.7286 61.5195 38.8416 61.6748 38.9904 61.7904C39.1392 61.906 39.3176 61.9772 39.5051 61.9957C39.5383 61.9986 39.5715 62.0006 39.6037 62.0006C39.7753 62.0006 39.9441 61.9565 40.0938 61.8724C40.2434 61.7883 40.3689 61.6672 40.4582 61.5206L43.3723 56.7345L48.68 58.5273C48.8584 58.5876 49.0503 58.5963 49.2334 58.5523C49.4166 58.5084 49.5836 58.4136 49.7153 58.279C49.8469 58.1443 49.9379 57.9751 49.9776 57.791C50.0174 57.6069 50.0043 57.4153 49.94 57.2383L44.3246 41.8108C44.6889 41.2888 45.0135 40.7403 45.2959 40.1699C45.5836 39.5346 45.9601 38.9434 46.4141 38.4141C46.9437 37.9604 47.5349 37.5839 48.17 37.2959C49.3304 36.8215 50.3315 36.0261 51.0558 35.0029C51.5741 33.8753 51.7621 32.6237 51.5978 31.3936C51.5301 30.6875 51.5626 29.9753 51.6944 29.2783C51.9217 28.6374 52.2383 28.0319 52.6349 27.4795C53.4139 26.4744 53.8877 25.2667 54 24C53.8877 22.7333 53.4138 21.5256 52.6348 20.5205ZM24.1689 58.7031L21.9209 55.0107C21.8027 54.8167 21.6219 54.6687 21.4084 54.5912C21.1948 54.5136 20.9613 54.5111 20.7461 54.584L16.6514 55.9668L21.2968 43.2031C22.3541 43.5916 23.4878 43.7268 24.6068 43.5977C25.3129 43.5305 26.025 43.5631 26.7221 43.6943C27.363 43.9216 27.9685 44.2382 28.5209 44.6348C28.7238 44.7639 28.9338 44.8958 29.1482 45.0248L24.1689 58.7031ZM43.2539 54.584C43.0387 54.5111 42.8052 54.5136 42.5916 54.5912C42.3781 54.6687 42.1973 54.8167 42.0791 55.0107L39.8311 58.7031L34.8522 45.0253C35.0666 44.8953 35.2766 44.7639 35.4795 44.6348C36.0317 44.2385 36.6369 43.9219 37.2773 43.6943C37.974 43.563 38.6858 43.5305 39.3916 43.5977C40.5112 43.7274 41.6456 43.5919 42.7032 43.2022L47.3486 55.9668L43.2539 54.584ZM50.9473 26.4053C50.4353 27.1262 50.0358 27.9207 49.7627 28.7617C49.5718 29.6523 49.5165 30.5665 49.5986 31.4736C49.725 32.326 49.6305 33.1966 49.3242 34.002C48.774 34.68 48.0577 35.2041 47.2451 35.5234C46.4261 35.8987 45.669 36.3966 45 37C44.396 37.6687 43.8977 38.4258 43.5225 39.2451C43.2031 40.0578 42.679 40.774 42.001 41.3242C41.1954 41.6297 40.3251 41.7242 39.4727 41.5986C38.5656 41.517 37.6514 41.5724 36.7607 41.7627C35.9201 42.0361 35.1259 42.4355 34.4053 42.9473C33.7097 43.503 32.8802 43.866 32 44C31.1198 43.866 30.2903 43.503 29.5947 42.9473C28.8738 42.4353 28.0793 42.0358 27.2383 41.7627C26.6771 41.6247 26.1003 41.5608 25.5225 41.5727C25.1885 41.5727 24.8555 41.5863 24.5264 41.599C23.674 41.7249 22.8036 41.6304 21.998 41.3246C21.32 40.7744 20.7959 40.0581 20.4766 39.2455C20.1013 38.4263 19.6034 37.6692 19 37C18.3313 36.396 17.5742 35.8977 16.7549 35.5225C15.9422 35.2031 15.226 34.679 14.6758 34.001C14.3696 33.1956 14.2751 32.3251 14.4014 31.4727C14.4834 30.5656 14.4281 29.6513 14.2373 28.7607C13.9639 27.9201 13.5645 27.1259 13.0527 26.4053C12.497 25.7097 12.134 24.8802 12 24C12.134 23.1198 12.497 22.2903 13.0527 21.5947C13.5647 20.8738 13.9642 20.0793 14.2373 19.2383C14.4281 18.3477 14.4835 17.4335 14.4014 16.5264C14.275 15.674 14.3695 14.8034 14.6758 13.998C15.226 13.32 15.9423 12.7959 16.7549 12.4766C17.5739 12.1013 18.331 11.6034 19 11C19.604 10.3313 20.1023 9.57417 20.4775 8.7549C20.7969 7.94224 21.321 7.22601 21.999 6.6758C22.8045 6.36976 23.6749 6.27529 24.5273 6.4014C25.4344 6.48292 26.3486 6.4276 27.2393 6.2373C28.0799 5.96394 28.8741 5.56452 29.5947 5.0527C30.2903 4.49703 31.1198 4.134 32 4C32.8802 4.134 33.7097 4.49703 34.4053 5.0527C35.1262 5.56473 35.9207 5.96416 36.7617 6.2373C37.6523 6.4276 38.5665 6.48292 39.4736 6.4014C40.326 6.27509 41.1965 6.36957 42.002 6.6758C42.68 7.22602 43.2041 7.94225 43.5234 8.7549C43.8987 9.57391 44.3966 10.331 45 11C45.6687 11.604 46.4258 12.1023 47.2451 12.4775C48.0578 12.7969 48.774 13.321 49.3242 13.999C49.6304 14.8044 49.7249 15.6749 49.5986 16.5273C49.5165 17.4344 49.5719 18.3487 49.7627 19.2393C50.0361 20.0799 50.4355 20.8741 50.9473 21.5947C51.503 22.2903 51.866 23.1198 52 24C51.866 24.8802 51.503 25.7097 50.9473 26.4053Z" fill="#457AF5"/>
<path d="M32 8C28.8355 8 25.7421 8.93838 23.1109 10.6965C20.4797 12.4546 18.4289 14.9534 17.2179 17.8771C16.0069 20.8007 15.6901 24.0177 16.3074 27.1214C16.9248 30.2251 18.4487 33.0761 20.6863 35.3137C22.9239 37.5513 25.7749 39.0752 28.8786 39.6926C31.9823 40.3099 35.1993 39.9931 38.123 38.7821C41.0466 37.5711 43.5454 35.5203 45.3035 32.8891C47.0616 30.2579 48 27.1645 48 24C47.9952 19.758 46.3079 15.6912 43.3084 12.6916C40.3088 9.69211 36.242 8.00484 32 8ZM32 38C29.2311 38 26.5243 37.1789 24.222 35.6406C21.9197 34.1022 20.1253 31.9157 19.0657 29.3576C18.0061 26.7994 17.7288 23.9845 18.269 21.2687C18.8092 18.553 20.1426 16.0584 22.1005 14.1005C24.0585 12.1426 26.553 10.8092 29.2687 10.269C31.9845 9.72881 34.7994 10.0061 37.3576 11.0657C39.9157 12.1253 42.1023 13.9197 43.6406 16.222C45.1789 18.5243 46 21.2311 46 24C45.9958 27.7117 44.5195 31.2703 41.8949 33.8949C39.2703 36.5195 35.7118 37.9958 32 38Z" fill="#457AF5"/>
<path d="M35.588 19.0108L32.8966 13.5577C32.8048 13.4015 32.6738 13.272 32.5165 13.1821C32.3593 13.0921 32.1813 13.0448 32.0001 13.0448C31.819 13.0448 31.6409 13.0921 31.4837 13.1821C31.3265 13.272 31.1954 13.4015 31.1036 13.5577L28.4122 19.0108L22.3937 19.8858C22.2091 19.9126 22.0357 19.9905 21.8931 20.1107C21.7505 20.2309 21.6444 20.3886 21.5867 20.566C21.529 20.7434 21.522 20.9333 21.5666 21.1144C21.6112 21.2955 21.7055 21.4606 21.839 21.5909L26.1944 25.836L25.1661 31.8312C25.1346 32.0151 25.1552 32.2041 25.2256 32.3769C25.296 32.5497 25.4133 32.6994 25.5642 32.809C25.7152 32.9187 25.8938 32.9839 26.0799 32.9973C26.266 33.0107 26.4522 32.9717 26.6173 32.8849L32.0001 30.0548L37.3829 32.8848C37.5481 32.9716 37.7342 33.0106 37.9203 32.9972C38.1064 32.9838 38.285 32.9186 38.436 32.8089C38.587 32.6993 38.7043 32.5496 38.7746 32.3768C38.845 32.204 38.8656 32.015 38.8341 31.8311L37.8058 25.8359L42.1612 21.5908C42.2947 21.4605 42.389 21.2954 42.4336 21.1143C42.4782 20.9332 42.4713 20.7433 42.4136 20.5659C42.3559 20.3885 42.2497 20.2308 42.1071 20.1106C41.9645 19.9904 41.7911 19.9125 41.6065 19.8857L35.588 19.0108ZM36.0333 24.7716C35.9174 24.8847 35.8307 25.0244 35.7807 25.1785C35.7306 25.3326 35.7188 25.4966 35.7462 25.6563L36.5206 30.172L32.4659 28.0401C32.3223 27.9644 32.1624 27.9249 32.0001 27.9249C31.8378 27.9249 31.6779 27.9644 31.5343 28.0401L27.4801 30.172L28.2545 25.6563C28.2819 25.4966 28.2701 25.3326 28.2201 25.1785C28.1701 25.0244 28.0834 24.8847 27.9674 24.7716L24.6861 21.5733L29.2203 20.9142C29.3808 20.891 29.5332 20.8291 29.6644 20.7338C29.7956 20.6385 29.9016 20.5127 29.9733 20.3673L32.0001 16.2601L34.0274 20.3675C34.0991 20.5129 34.2051 20.6387 34.3363 20.734C34.4675 20.8293 34.6199 20.8912 34.7804 20.9144L39.3146 21.5735L36.0333 24.7716Z" fill="#457AF5"/>
</svg>
