<svg width="123" height="38" viewBox="0 0 123 38" fill="none" xmlns="http://www.w3.org/2000/svg">
<path fill-rule="evenodd" clip-rule="evenodd" d="M77.2002 11.56L75.2002 8.18001L71.6502 9.87001L69.6502 6.48001L66.1002 8.18001L64.1102 4.78001L60.5602 6.48001L58.5602 3.09001L55.0102 4.79001L53.0202 1.39001L49.4602 3.09001L41.9302 27.61L51.0802 30.41C51.4248 29.3048 52.1535 28.3594 53.1344 27.7445C54.1153 27.1297 55.2838 26.886 56.4287 27.0575C57.5736 27.229 58.6194 27.8044 59.3771 28.6796C60.1348 29.5549 60.5545 30.6723 60.5602 31.83V31.93C60.5802 32.37 60.5302 32.81 60.4002 33.25L69.7002 36.1L77.2002 11.56Z" fill="#D61920"/>
<path fill-rule="evenodd" clip-rule="evenodd" d="M49.78 25.59C49.5487 25.5517 49.3388 25.4318 49.1884 25.252C49.0379 25.0722 48.9569 24.8444 48.96 24.61V12.61C48.9587 12.4783 48.9837 12.3476 49.0334 12.2257C49.0832 12.1038 49.1568 11.993 49.25 11.8999C49.3431 11.8068 49.4539 11.7332 49.5758 11.6834C49.6977 11.6336 49.8284 11.6086 49.96 11.61H58.6301C59.1409 11.6087 59.647 11.708 60.1194 11.9023C60.5919 12.0965 61.0215 12.382 61.3836 12.7423C61.7458 13.1025 62.0334 13.5306 62.2301 14.0021C62.4268 14.4736 62.5287 14.9791 62.53 15.49V24.61C62.5298 24.7573 62.497 24.9027 62.434 25.0358C62.371 25.1689 62.2794 25.2865 62.1658 25.3801C62.0521 25.4737 61.9191 25.5411 61.7764 25.5774C61.6336 25.6137 61.4846 25.618 61.34 25.59C61.1106 25.5496 60.903 25.4288 60.7546 25.2492C60.6061 25.0696 60.5265 24.843 60.53 24.61V15.5C60.53 14.9961 60.3299 14.5128 59.9736 14.1565C59.6172 13.8002 59.134 13.6 58.6301 13.6H56.7401V24.6C56.7408 24.734 56.7147 24.8667 56.6631 24.9904C56.6116 25.1141 56.5357 25.2262 56.44 25.32C56.3262 25.4329 56.1866 25.5164 56.0333 25.5635C55.88 25.6105 55.7176 25.6196 55.5601 25.59C55.3287 25.5517 55.1188 25.4318 54.9684 25.252C54.8179 25.0722 54.7369 24.8444 54.7401 24.61V13.6H50.96V24.6C50.961 24.7471 50.9294 24.8926 50.8677 25.0261C50.8059 25.1596 50.7155 25.2779 50.6028 25.3724C50.4901 25.467 50.3579 25.5355 50.2157 25.5731C50.0735 25.6107 49.9247 25.6165 49.78 25.59ZM64.2001 30.82C63.967 30.7815 63.7557 30.6601 63.605 30.4782C63.4544 30.2963 63.3745 30.0661 63.3801 29.83C63.3812 29.5676 63.4853 29.3162 63.67 29.13C63.8547 28.9416 64.1063 28.8337 64.37 28.83C65.22 28.83 65.9501 28.29 66.1901 27.48L67.2201 24.05L63.85 12.78C63.8099 12.6539 63.7951 12.5212 63.8066 12.3894C63.818 12.2576 63.8556 12.1294 63.917 12.0122C63.9783 11.895 64.0624 11.7911 64.1642 11.7066C64.266 11.6222 64.3835 11.5587 64.51 11.52C64.7619 11.4502 65.031 11.4797 65.2618 11.6025C65.4925 11.7253 65.6673 11.932 65.75 12.18L68.25 20.58L70.7901 12.18C70.9101 11.72 71.4201 11.41 71.9401 11.51L72.0101 11.52C72.5501 11.69 72.8501 12.26 72.6901 12.79L69.2201 24.35L68.1201 28.05C67.8732 28.8462 67.3837 29.5455 66.7201 30.05C66.045 30.5563 65.2239 30.83 64.3801 30.83C64.3199 30.8323 64.2596 30.8289 64.2001 30.82Z" fill="#FEFEFE"/>
<path fill-rule="evenodd" clip-rule="evenodd" d="M3.0801 23.4H5.0401C5.56258 23.4 6.06365 23.1924 6.4331 22.823C6.80255 22.4535 7.0101 21.9525 7.0101 21.43V15.66C7.01142 15.4013 6.96176 15.1449 6.86398 14.9053C6.76619 14.6658 6.62218 14.4479 6.44018 14.2641C6.25817 14.0802 6.04174 13.934 5.80323 13.8338C5.56472 13.7336 5.3088 13.6813 5.0501 13.68H3.0801V23.38V23.4ZM1.8501 25.46C1.60999 25.4194 1.39231 25.2943 1.23641 25.1072C1.08052 24.9202 0.996698 24.6835 1.0001 24.44V6.51999C0.998332 6.38289 1.02396 6.24681 1.07547 6.11974C1.12699 5.99267 1.20336 5.87716 1.3001 5.77999C1.41715 5.65846 1.56226 5.56754 1.72268 5.51523C1.88309 5.46292 2.05391 5.45082 2.2201 5.47999C2.7201 5.57999 3.0801 5.99999 3.0801 6.50999V11.61H5.0401C5.57148 11.6087 6.0979 11.7122 6.58921 11.9146C7.08052 12.1171 7.52707 12.4145 7.90328 12.7897C8.27949 13.165 8.57797 13.6108 8.78162 14.1016C8.98527 14.5924 9.0901 15.1186 9.0901 15.65V21.42C9.08746 22.4907 8.66097 23.5167 7.90389 24.2738C7.14682 25.0309 6.12076 25.4574 5.0501 25.46H2.0401C1.97327 25.4639 1.9062 25.4606 1.8401 25.45L1.8501 25.46Z" fill="#333545"/>
<path fill-rule="evenodd" clip-rule="evenodd" d="M16.14 13.6C16.0277 13.5804 15.914 13.5704 15.8 13.57C15.5406 13.5674 15.2832 13.6165 15.043 13.7145C14.8028 13.8126 14.5845 13.9576 14.4011 14.1411C14.2176 14.3245 14.0726 14.5428 13.9745 14.783C13.8765 15.0232 13.8273 15.2806 13.83 15.54V21.55C13.8287 21.8091 13.8787 22.0659 13.9773 22.3055C14.0758 22.5451 14.2209 22.7628 14.4041 22.946C14.5873 23.1292 14.805 23.2742 15.0446 23.3728C15.2842 23.4713 15.5409 23.5214 15.8 23.52C16.3225 23.52 16.8236 23.3125 17.193 22.943C17.5625 22.5736 17.77 22.0725 17.77 21.55V15.55C17.77 14.58 17.08 13.77 16.14 13.6ZM15.09 25.55C14.1524 25.3851 13.3032 24.8943 12.6921 24.1644C12.0811 23.4344 11.7474 22.512 11.75 21.56V15.55C11.7483 15.0181 11.8526 14.4912 12.0569 14.0002C12.2613 13.5091 12.5615 13.0637 12.94 12.69C13.3155 12.3146 13.7615 12.0172 14.2523 11.8147C14.7431 11.6121 15.2691 11.5086 15.8 11.51C16.8715 11.51 17.8991 11.9357 18.6567 12.6933C19.4144 13.451 19.84 14.4786 19.84 15.55V21.56C19.84 22.64 19.42 23.66 18.65 24.43C18.2761 24.8047 17.8318 25.1018 17.3427 25.3043C16.8536 25.5068 16.3294 25.6107 15.8 25.61C15.562 25.611 15.3245 25.591 15.09 25.55ZM26.89 13.61C26.7778 13.5904 26.664 13.5803 26.55 13.58C26.2906 13.5774 26.0332 13.6265 25.793 13.7245C25.5528 13.8226 25.3345 13.9676 25.1511 14.1511C24.9676 14.3345 24.8226 14.5528 24.7245 14.793C24.6265 15.0332 24.5773 15.2906 24.58 15.55V21.56C24.5787 21.8191 24.6287 22.0759 24.7273 22.3155C24.8258 22.5551 24.9709 22.7728 25.1541 22.956C25.3373 23.1392 25.555 23.2842 25.7946 23.3828C26.0342 23.4813 26.2909 23.5314 26.55 23.53C26.8091 23.5314 27.0659 23.4813 27.3055 23.3828C27.5451 23.2842 27.7628 23.1392 27.946 22.956C28.1292 22.7728 28.2742 22.5551 28.3728 22.3155C28.4713 22.0759 28.5213 21.8191 28.52 21.56V15.55C28.52 14.59 27.83 13.78 26.89 13.61ZM25.84 25.55C24.9043 25.383 24.0574 24.8913 23.4483 24.1615C22.8392 23.4318 22.507 22.5106 22.51 21.56V15.55C22.5116 14.9607 22.6418 14.3788 22.8915 13.8449C23.1412 13.3111 23.5043 12.8382 23.9557 12.4592C24.407 12.0802 24.9357 11.8043 25.5046 11.6507C26.0736 11.4972 26.6693 11.4696 27.25 11.57C28.1878 11.7326 29.038 12.221 29.6509 12.9491C30.2637 13.6772 30.5999 14.5983 30.6 15.55V21.56C30.6012 22.0942 30.4957 22.6233 30.2897 23.1161C30.0836 23.609 29.7811 24.0557 29.4 24.43C29.0261 24.8047 28.5818 25.1018 28.0927 25.3043C27.6036 25.5068 27.0794 25.6107 26.55 25.61C26.31 25.61 26.07 25.59 25.84 25.55ZM34.11 25.59C33.8699 25.5495 33.6522 25.4243 33.4963 25.2373C33.3404 25.0502 33.2566 24.8135 33.26 24.57V6.52004C33.26 6.24004 33.36 5.97004 33.56 5.78004C33.678 5.66359 33.8223 5.57733 33.9807 5.52858C34.1392 5.47983 34.307 5.47004 34.47 5.50004C34.97 5.58004 35.34 6.01004 35.34 6.52004V17.2L40.12 11.84C40.36 11.58 40.72 11.46 41.08 11.52C41.2615 11.5504 41.4316 11.6289 41.5725 11.7472C41.7134 11.8656 41.8201 12.0196 41.8813 12.1931C41.9426 12.3667 41.9562 12.5534 41.9208 12.734C41.8854 12.9146 41.8023 13.0825 41.68 13.22L38.07 17.25L41.8 24.08C41.8672 24.1952 41.9106 24.3227 41.9278 24.4549C41.945 24.5872 41.9355 24.7215 41.9 24.85C41.8614 24.9825 41.7962 25.1058 41.7086 25.2123C41.6209 25.3189 41.5125 25.4066 41.39 25.47C41.1783 25.5918 40.9302 25.6343 40.69 25.59C40.5406 25.5648 40.3986 25.5069 40.2742 25.4205C40.1497 25.334 40.0459 25.2212 39.97 25.09L36.61 18.91L35.33 20.32V24.57C35.33 24.8459 35.2204 25.1104 35.0254 25.3054C34.8304 25.5005 34.5658 25.61 34.29 25.61C34.22 25.61 34.16 25.61 34.09 25.59H34.11ZM79.92 25.58C79.3577 25.4858 78.8234 25.2673 78.3563 24.9403C77.8892 24.6133 77.501 24.1862 77.22 23.69C77.0826 23.447 77.0467 23.1595 77.12 22.89C77.2 22.63 77.37 22.41 77.6 22.27C77.8136 22.1534 78.061 22.1145 78.3 22.16C78.6 22.21 78.87 22.39 79.02 22.66C79.29 23.12 79.72 23.42 80.25 23.51C80.5233 23.5575 80.8037 23.5426 81.0704 23.4664C81.3371 23.3902 81.5831 23.2547 81.79 23.07C82.19 22.7 82.39 22.17 82.34 21.65C82.3289 21.3835 82.2552 21.1233 82.1249 20.8905C81.9947 20.6577 81.8114 20.4589 81.59 20.31L78.79 18.32C78.3338 17.9997 77.9539 17.5827 77.6774 17.0987C77.4008 16.6147 77.2344 16.0757 77.19 15.52C77.1538 14.9594 77.2458 14.3979 77.4589 13.8781C77.672 13.3583 78.0007 12.8939 78.42 12.52C78.8291 12.1397 79.3178 11.8553 79.8506 11.6876C80.3834 11.5198 80.9468 11.4728 81.5 11.55C82.68 11.75 83.64 12.43 84.19 13.39C84.3225 13.6299 84.357 13.9118 84.2861 14.1766C84.2153 14.4414 84.0446 14.6684 83.81 14.81C83.5983 14.9318 83.3502 14.9743 83.11 14.93C82.9606 14.9048 82.8186 14.8469 82.6942 14.7605C82.5697 14.674 82.4659 14.5612 82.39 14.43C82.2646 14.2179 82.0937 14.0361 81.8897 13.8978C81.6857 13.7595 81.4536 13.668 81.21 13.63C80.9609 13.5849 80.7046 13.5985 80.4616 13.6697C80.2186 13.7408 79.9955 13.8676 79.81 14.04C79.6289 14.2109 79.4876 14.4196 79.396 14.6511C79.3044 14.8827 79.2648 15.1315 79.28 15.38C79.3 15.87 79.58 16.35 80 16.63L82.8 18.58C83.2753 18.9128 83.6684 19.3498 83.9491 19.8576C84.2299 20.3653 84.3909 20.9305 84.42 21.51C84.4663 22.0868 84.3775 22.6665 84.1605 23.2029C83.9435 23.7393 83.6043 24.2177 83.17 24.6C82.7476 24.9925 82.243 25.286 81.6929 25.459C81.1428 25.6319 80.5611 25.6801 79.99 25.6L79.91 25.58H79.92ZM87.95 25.61C87.7098 25.5678 87.4921 25.4426 87.3349 25.2561C87.1777 25.0697 87.091 24.8339 87.09 24.59V6.54004C87.0887 6.40309 87.1147 6.26725 87.1665 6.14047C87.2183 6.01369 87.2948 5.89851 87.3917 5.80167C87.4885 5.70483 87.6037 5.62827 87.7305 5.57648C87.8572 5.52469 87.9931 5.4987 88.13 5.50004L88.33 5.51004C88.83 5.61004 89.17 6.02004 89.17 6.54004V11.64H91.14C91.6709 11.6387 92.1969 11.7423 92.6876 11.9449C93.1784 12.1474 93.6243 12.445 93.9997 12.8204C94.3751 13.1958 94.6726 13.6417 94.8752 14.1324C95.0777 14.6232 95.1813 15.1491 95.18 15.68V24.58C95.1809 24.731 95.1485 24.8804 95.0853 25.0175C95.022 25.1546 94.9294 25.2761 94.8139 25.3734C94.6985 25.4707 94.563 25.5415 94.4172 25.5806C94.2714 25.6198 94.1187 25.6264 93.97 25.6C93.47 25.51 93.11 25.08 93.11 24.57V15.67C93.11 15.4118 93.059 15.1561 92.9599 14.9177C92.8608 14.6792 92.7155 14.4627 92.5324 14.2806C92.3494 14.0984 92.1321 13.9543 91.8932 13.8564C91.6542 13.7584 91.3983 13.7087 91.14 13.71H89.17V24.58C89.1712 24.732 89.1386 24.8824 89.0748 25.0204C89.0109 25.1583 88.9173 25.2804 88.8007 25.3779C88.6841 25.4754 88.5473 25.5459 88.4003 25.5843C88.2532 25.6227 88.0994 25.6281 87.95 25.6V25.61ZM102.23 13.62C101.947 13.5686 101.655 13.5802 101.377 13.6542C101.099 13.7281 100.84 13.8624 100.619 14.0476C100.399 14.2328 100.222 14.4644 100.101 14.7258C99.9801 14.9872 99.9183 15.272 99.92 15.56V21.57C99.9187 21.8283 99.9684 22.0842 100.066 22.3232C100.164 22.5621 100.308 22.7794 100.491 22.9624C100.673 23.1455 100.889 23.2908 101.128 23.3899C101.366 23.489 101.622 23.54 101.88 23.54C102.4 23.54 102.9 23.34 103.27 22.97C103.455 22.7872 103.602 22.5691 103.702 22.3287C103.801 22.0882 103.852 21.8303 103.85 21.57V15.55C103.85 14.59 103.17 13.77 102.22 13.61L102.23 13.62ZM101.17 25.54C100.235 25.3751 99.3884 24.8855 98.7792 24.1573C98.17 23.4292 97.8374 22.5094 97.84 21.56V15.55C97.8401 14.9598 97.9692 14.3768 98.2183 13.8417C98.4674 13.3067 98.8304 12.8325 99.2819 12.4524C99.7334 12.0724 100.263 11.7956 100.832 11.6414C101.402 11.4873 101.998 11.4595 102.58 11.56C103.519 11.7229 104.371 12.2127 104.984 12.9429C105.597 13.6731 105.932 14.5966 105.93 15.55V21.56C105.93 22.0926 105.825 22.62 105.619 23.1111C105.412 23.6022 105.11 24.0472 104.73 24.42C104.271 24.8806 103.708 25.2231 103.088 25.4182C102.468 25.6133 101.81 25.6551 101.17 25.54Z" fill="#333545"/>
<path fill-rule="evenodd" clip-rule="evenodd" d="M121.9 12.79C121.934 12.663 121.943 12.5305 121.926 12.4001C121.909 12.2697 121.866 12.1439 121.8 12.03C121.725 11.9087 121.626 11.8036 121.509 11.7212C121.392 11.6388 121.26 11.5806 121.12 11.55C120.862 11.5013 120.596 11.5528 120.374 11.694C120.153 11.8353 119.994 12.0556 119.93 12.31C119.93 12.36 118.81 16.87 117.93 20.3L117.91 20.37L117.89 20.3L115.89 12.32C115.852 12.1252 115.754 11.9469 115.611 11.8092C115.468 11.6715 115.286 11.5811 115.09 11.55C115.031 11.5383 114.971 11.5316 114.91 11.53C114.45 11.53 114.05 11.85 113.92 12.31C113.91 12.36 112.79 16.87 111.92 20.3L111.9 20.37L111.88 20.3C111.03 16.87 109.88 12.36 109.88 12.31C109.833 12.1186 109.731 11.945 109.588 11.8101C109.444 11.6752 109.264 11.5849 109.07 11.55C108.904 11.5206 108.732 11.533 108.572 11.5861C108.411 11.6393 108.267 11.7315 108.151 11.8544C108.035 11.9774 107.951 12.1273 107.907 12.2906C107.864 12.4539 107.861 12.6255 107.9 12.79L110.91 24.82C110.967 25.0405 111.095 25.2362 111.274 25.3771C111.452 25.518 111.672 25.5963 111.9 25.6C112.39 25.6 112.78 25.28 112.88 24.82L114.88 16.83L114.91 16.76L114.93 16.83C115.81 20.3 116.93 24.83 116.93 24.83C116.99 25.0462 117.117 25.2376 117.294 25.3762C117.47 25.5147 117.686 25.5932 117.91 25.6C118.141 25.6072 118.366 25.5329 118.547 25.3903C118.728 25.2476 118.853 25.0457 118.9 24.82L121.9 12.79Z" fill="#333545"/>
</svg>
