<svg width="56" height="56" viewBox="0 0 56 56" fill="none" xmlns="http://www.w3.org/2000/svg">
<g clip-path="url(#clip0_113_547)">
<path d="M9.8493 43.3069C9.06531 43.3069 8.31165 43.5026 7.643 43.8701C4.12079 39.3549 2.1875 33.746 2.1875 28C2.1875 13.7667 13.7667 2.1875 28 2.1875C29.7303 2.1875 31.4598 2.35968 33.1406 2.69934C33.7319 2.81897 34.3096 2.43616 34.4292 1.84399C34.5488 1.25183 34.166 0.675049 33.5738 0.554993C31.7508 0.186707 29.8756 0 28 0C20.5211 0 13.4894 2.91254 8.20099 8.20099C2.91254 13.4894 0 20.5211 0 28C0 34.2912 2.13623 40.4307 6.02545 45.3526C5.52472 46.1007 5.25555 46.98 5.25555 47.9007C5.25555 49.1277 5.73364 50.2813 6.60138 51.1486C7.46869 52.0164 8.62225 52.4944 9.8493 52.4944C11.0764 52.4944 12.2299 52.0164 13.0977 51.1486C13.9654 50.2813 14.4431 49.1273 14.4431 47.9003C14.4431 46.6736 13.9654 45.5197 13.0977 44.6523C12.2299 43.7846 11.0764 43.3069 9.8493 43.3069ZM11.5506 49.602C11.0964 50.0566 10.4919 50.3069 9.8493 50.3069C9.20673 50.3069 8.6026 50.0566 8.14801 49.602C7.69342 49.1474 7.44305 48.5433 7.44305 47.9007C7.44305 47.2577 7.69342 46.6536 8.14801 46.199C8.60217 45.7444 9.20673 45.4944 9.8493 45.4944C10.4919 45.4944 11.096 45.7448 11.5506 46.199C12.0052 46.6536 12.2556 47.2577 12.2556 47.9007C12.2556 48.5433 12.0052 49.1474 11.5506 49.602Z" fill="#457AF5"/>
<path d="M49.9735 10.6462C51.1625 8.86243 50.9716 6.42371 49.3989 4.85101C48.5311 3.9837 47.3776 3.50562 46.1505 3.50562C44.9235 3.50562 43.7699 3.9837 42.9022 4.85101C42.0344 5.71875 41.5568 6.87231 41.5568 8.09937C41.5568 9.32642 42.0344 10.48 42.9022 11.3477C43.7699 12.2155 44.9235 12.6931 46.1505 12.6931C46.9345 12.6931 47.6882 12.4974 48.3568 12.13C51.879 16.6456 53.8123 22.254 53.8123 28.0001C53.8123 42.2333 42.2331 53.8126 27.9998 53.8126C26.2866 53.8126 24.5733 53.6438 22.9083 53.3105C22.3162 53.1922 21.7398 53.5763 21.621 54.1685C21.5027 54.761 21.8868 55.337 22.4789 55.4557C24.2849 55.8168 26.1426 56.0001 27.9998 56.0001C35.4788 56.0001 42.5104 53.0875 47.7988 47.7991C53.0873 42.5106 55.9998 35.479 55.9998 28.0001C55.9998 21.7084 53.8632 15.5685 49.9735 10.6462ZM44.4492 9.80109C43.9946 9.3465 43.7443 8.74237 43.7443 8.09937C43.7443 7.45679 43.9946 6.85266 44.4492 6.39807C44.9034 5.94348 45.5079 5.69312 46.1505 5.69312C46.7931 5.69312 47.3976 5.94348 47.8522 6.39807C48.79 7.3363 48.79 8.86285 47.8522 9.80109C47.3976 10.2552 46.7931 10.5056 46.1505 10.5056C45.5075 10.5056 44.9034 10.2552 44.4492 9.80109Z" fill="#457AF5"/>
<path d="M23.4863 46.8125C23.4863 47.4166 23.9764 47.9062 24.5801 47.9062H31.419C32.0231 47.9062 32.5128 47.4166 32.5128 46.8125V44.6921C33.9509 44.305 35.3257 43.735 36.6177 42.9908L38.1148 44.4879C38.3199 44.6929 38.598 44.8083 38.8885 44.8083C39.1782 44.8083 39.4568 44.6929 39.6619 44.4874L44.4957 39.6501C44.9225 39.2229 44.9225 38.5303 44.4957 38.1035L43.0004 36.6082C43.7446 35.3162 44.3146 33.9413 44.7017 32.5032H46.814C47.4181 32.5032 47.9077 32.0135 47.9077 31.4094V24.5705C47.9077 23.9664 47.4181 23.4767 46.814 23.4767H44.7012C44.3141 22.0391 43.7446 20.6642 43.0004 19.3722L44.4876 17.8849C44.6927 17.6799 44.808 17.4013 44.808 17.1112C44.8076 16.8211 44.6923 16.5425 44.4872 16.3375L39.6495 11.5036C39.2227 11.0768 38.5301 11.0768 38.1028 11.504L36.6177 12.9896C35.3257 12.2453 33.9509 11.6754 32.5128 11.2883V9.1875C32.5128 8.58337 32.0231 8.09375 31.419 8.09375H24.5801C23.9764 8.09375 23.4863 8.58337 23.4863 9.1875V11.2887C22.0486 11.6754 20.6738 12.2453 19.3818 12.9896L17.8962 11.504C17.4694 11.0772 16.7769 11.0768 16.3496 11.5036L11.5123 16.3379C11.3068 16.543 11.1915 16.8211 11.1915 17.1112C11.1915 17.4013 11.3068 17.6799 11.5119 17.8849L12.9991 19.3722C12.2549 20.6642 11.6849 22.0386 11.2979 23.4767H9.18939C8.58527 23.4767 8.09564 23.9664 8.09564 24.5701L8.0918 31.409C8.09137 31.6991 8.20673 31.9777 8.41181 32.1827C8.61688 32.3878 8.89502 32.5032 9.18555 32.5032H11.2979C11.6849 33.9413 12.2549 35.3162 12.9991 36.6082L11.5038 38.1035C11.077 38.5303 11.0765 39.2229 11.5038 39.6501L16.3376 44.4874C16.5427 44.6925 16.8209 44.8083 17.111 44.8083H17.1114C17.4015 44.8083 17.6796 44.6929 17.8847 44.4879L19.3813 42.9908C20.6738 43.735 22.0486 44.305 23.4863 44.6921V46.8125ZM19.8103 40.6905C19.3775 40.4106 18.808 40.4713 18.4431 40.8358L17.1114 42.1675L13.8237 38.8773L15.1542 37.5464C15.5186 37.1819 15.5793 36.6124 15.2994 36.1796C14.3078 34.645 13.6105 32.9629 13.2277 31.1796C13.1192 30.6758 12.674 30.3157 12.1583 30.3157H10.2797L10.2823 25.6642H12.1583C12.674 25.6642 13.1192 25.3045 13.2277 24.8004C13.6105 23.0175 14.3078 21.3354 15.2994 19.8007C15.5793 19.3679 15.5186 18.7984 15.1542 18.434L13.8323 17.1116L17.1225 13.824L18.4431 15.145C18.808 15.5095 19.3771 15.5697 19.8103 15.2903C21.3445 14.2986 23.0266 13.6014 24.8099 13.2186C25.3137 13.11 25.6738 12.6644 25.6738 12.1492V10.2812H30.3253V12.1487C30.3253 12.6644 30.685 13.11 31.1891 13.2181C32.972 13.6014 34.6545 14.2982 36.1888 15.2899C36.6216 15.5697 37.1911 15.5095 37.5555 15.1446L38.8766 13.824L42.1668 17.1116L40.8449 18.4335C40.48 18.7984 40.4198 19.3679 40.6996 19.8007C41.6913 21.3354 42.3881 23.0175 42.7714 24.8004C42.8794 25.3045 43.3251 25.6642 43.8408 25.6642H45.7202V30.3157H43.8408C43.3251 30.3157 42.8799 30.6758 42.7714 31.1796C42.3885 32.9625 41.6913 34.645 40.6996 36.1792C40.4198 36.6124 40.4805 37.1819 40.8449 37.5464L42.1753 38.8768L38.8877 42.1671L37.556 40.8358C37.1911 40.4709 36.6216 40.4106 36.1888 40.6905C34.6541 41.6821 32.972 42.379 31.1891 42.7622C30.685 42.8707 30.3253 43.3159 30.3253 43.8316V45.7188H25.6738V43.8316C25.6738 43.3163 25.3137 42.8707 24.8099 42.7622C23.027 42.3794 21.345 41.6821 19.8103 40.6905Z" fill="#457AF5"/>
<path d="M37.0375 27.9999C37.0375 23.0165 32.9833 18.9624 27.9999 18.9624C23.0165 18.9624 18.9624 23.0165 18.9624 27.9999C18.9624 32.9833 23.0165 37.0375 27.9999 37.0375C32.9833 37.0375 37.0375 32.9833 37.0375 27.9999ZM21.1499 27.9999C21.1499 24.2227 24.2227 21.1499 27.9999 21.1499C31.7772 21.1499 34.85 24.2231 34.85 27.9999C34.85 31.7768 31.7772 34.85 27.9999 34.85C24.2227 34.85 21.1499 31.7772 21.1499 27.9999Z" fill="#457AF5"/>
<path d="M38.0713 4.13654C38.3593 4.13654 38.6412 4.01947 38.8446 3.8161C39.048 3.61145 39.165 3.32947 39.165 3.0415C39.165 2.75525 39.0484 2.47284 38.8446 2.26819C38.6412 2.06482 38.3593 1.94775 38.0713 1.94775C37.7825 1.94775 37.5018 2.06482 37.2984 2.26819C37.0946 2.47284 36.9775 2.75397 36.9775 3.0415C36.9775 3.33032 37.0946 3.61145 37.2984 3.8161C37.5018 4.01947 37.7825 4.13654 38.0713 4.13654Z" fill="#457AF5"/>
<path d="M17.9766 51.8831C17.689 51.8831 17.4066 52.0001 17.2032 52.2035C16.9999 52.4069 16.8828 52.6893 16.8828 52.9768C16.8828 53.2656 16.9999 53.5468 17.2032 53.7501C17.4066 53.9535 17.689 54.0706 17.9766 54.0706C18.2641 54.0706 18.5465 53.9535 18.7499 53.7501C18.9532 53.5468 19.0703 53.2643 19.0703 52.9768C19.0703 52.6893 18.9532 52.4069 18.7499 52.2035C18.5465 52.0001 18.2641 51.8831 17.9766 51.8831Z" fill="#457AF5"/>
</g>
<defs>
<clipPath id="clip0_113_547">
<rect width="56" height="56" fill="white"/>
</clipPath>
</defs>
</svg>
