<svg width="106" height="33" viewBox="0 0 106 33" fill="none" xmlns="http://www.w3.org/2000/svg">
<g clip-path="url(#clip0_113_493)">
<path d="M78.7969 31.4983L87.627 21.7566L78.7969 12.0135H88.1136L92.487 16.7461L96.6983 12.0135H105.69L96.9018 21.7164L105.811 31.4983H96.4557L92.1219 26.7269L87.8291 31.4983H78.7969Z" fill="#FF6600"/>
<path d="M78.7967 7.64584H68.7959V12.0136H78.7967V18.5962H68.7959V24.6382H78.7967V31.4984H61.4453V0.804688H78.7967V7.64584Z" fill="#FF6600"/>
<path d="M54.1258 0.804688V13.366H54.0452C52.4248 11.5372 50.4001 10.9017 48.0509 10.9017C43.2388 10.9017 39.6139 14.1136 38.3415 18.3603C36.8905 13.6811 33.1482 10.814 27.5991 10.814C23.0926 10.814 19.534 12.8001 17.677 16.0365V12.0141H8.36207V7.64675H18.5272V0.804688H0.0585938V31.4988H8.36207V18.5962H16.6384C16.3916 19.5441 16.26 20.5588 16.26 21.6296C16.26 28.0323 21.2415 32.5249 27.5991 32.5249C32.9452 32.5249 36.4683 30.0605 38.3318 25.5675H31.2161C30.2535 26.9172 29.5234 27.3182 27.5991 27.3182C25.3677 27.3182 23.4439 25.4066 23.4439 23.1407H37.9332C38.5616 28.2263 42.5961 32.6121 48.1329 32.6121C50.5212 32.6121 52.7079 31.4586 54.0452 29.5109H54.1258V31.4979H61.4455V0.804688H54.1258ZM23.675 18.688C24.1367 16.7385 25.6766 15.4642 27.5991 15.4642C29.7153 15.4642 31.177 16.6991 31.5614 18.688C31.7234 18.688 23.675 18.688 23.675 18.688ZM49.6838 26.825C46.9857 26.825 45.309 24.3566 45.309 21.7793C45.309 19.0243 46.7674 16.375 49.6838 16.375C52.7079 16.375 53.9127 19.0243 53.9127 21.7793C53.9122 24.3919 52.6356 26.825 49.6838 26.825Z" fill="#652C8F"/>
</g>
<defs>
<clipPath id="clip0_113_493">
<rect width="105.882" height="31.6406" fill="white" transform="translate(0.0585938 0.804688)"/>
</clipPath>
</defs>
</svg>
