<svg width="64" height="64" viewBox="0 0 64 64" fill="none" xmlns="http://www.w3.org/2000/svg">
<path d="M57.1356 8.6035L54.4008 6.1953L57.1356 3.78759C57.5609 3.41259 57.7064 2.82812 57.5067 2.29785C57.306 1.76709 56.8104 1.42431 56.2435 1.42431H44.9262V0.937986C44.9262 0.419921 44.5062 0 43.9882 0C43.4701 0 43.0502 0.419921 43.0502 0.937986V13.5884L35.3466 17.7715C35.3041 17.4326 35.2026 17.0996 35.0419 16.7861L33.9565 14.667C33.2113 13.2119 31.4213 12.6352 29.9672 13.3799L29.1279 13.8095C28.4228 14.1709 27.9008 14.7842 27.6576 15.5381C27.4145 16.2915 27.4794 17.0947 27.8408 17.7993L28.9262 19.9189C29.1796 20.4135 29.5541 20.8051 29.9946 21.0795C29.4184 21.8554 29.145 22.8095 28.8637 23.8007L28.6616 24.5166C28.5204 25.0151 28.8105 25.5336 29.309 25.6743C29.394 25.6987 29.4799 25.7099 29.5644 25.7099C29.9736 25.7099 30.3495 25.4404 30.4667 25.0268L30.6689 24.3125C31.08 22.8627 31.3324 22.0864 32.1362 21.6499L33.5771 20.8671L33.7548 20.7763C33.8139 20.7461 33.8691 20.7119 33.9252 20.6782L44.1947 15.1015C44.1298 16.3852 43.4389 17.5981 42.3012 18.289L35.623 22.3466C35.6152 22.351 35.6073 22.3554 35.6 22.3603L33.5214 23.623C33.079 23.892 32.9379 24.4692 33.207 24.9121C33.4604 25.3295 33.9877 25.478 34.4179 25.2685L32.8407 30.0361L31.6879 30.5087L28.5532 31.7934L29.4565 28.6C29.5971 28.1015 29.3075 27.583 28.809 27.4418C28.31 27.3002 27.7919 27.5908 27.6508 28.0893L26.2236 33.1367C26.205 33.2016 26.1928 33.2729 26.1899 33.3408L25.8163 40.2021C25.8051 40.4638 25.8608 40.9584 25.7397 41.2138L21.5913 49.9413H18.5766C16.8105 49.9413 15.374 51.3778 15.374 53.1435V55.851C14.9697 55.6659 14.521 55.5624 14.0478 55.5624H6.39208C4.62645 55.5624 3.18993 56.9984 3.18993 58.7645V62.1239H0.937986C0.419921 62.1239 0 62.5438 0 63.0619C0 63.58 0.419921 63.9999 0.937986 63.9999H56.2425C56.7606 63.9999 57.1805 63.58 57.1805 63.0619C57.1805 62.5438 56.7606 62.1239 56.2425 62.1239H53.8031V37.9467C53.8031 36.1811 52.3666 34.7446 50.601 34.7446H44.9262V18.3808C45.9662 16.9712 46.3515 15.1235 45.8685 13.3677C45.7929 13.0918 45.5951 12.8652 45.3314 12.7534C45.202 12.6982 45.0634 12.6738 44.9262 12.6792V10.9668H56.243C56.8104 10.9668 57.306 10.624 57.5062 10.0937C57.7064 9.56346 57.5609 8.9785 57.1356 8.6035ZM29.4433 16.1142C29.5326 15.8374 29.7241 15.6118 29.9828 15.4795L30.8222 15.0498C30.9804 14.9687 31.1493 14.9301 31.3163 14.9301C31.7118 14.9301 32.0942 15.1465 32.2865 15.5219L33.3725 17.6416C33.6259 18.1367 33.4618 18.7368 33.0112 19.04L32.7055 19.2055L32.0605 19.5361C31.5268 19.8095 30.8696 19.5976 30.5961 19.0634L29.5102 16.9443C29.3779 16.6855 29.3539 16.3906 29.4433 16.1142ZM27.5585 50.2299C27.2397 50.0844 26.893 49.9892 26.5287 49.9555L27.5585 48.5878V50.2299ZM32.0121 42.6718C32.4633 42.1313 32.5878 41.4999 32.6884 40.9911C32.7138 40.87 33.1767 38.3417 33.1767 38.3417C33.1767 38.3417 33.6147 38.6147 33.6606 38.6342C33.6923 38.6484 33.7148 38.6796 33.7182 38.7162L34.2284 43.9032H31.0849L32.0121 42.6718ZM37.559 37.4946L36.767 43.8988H36.1132L35.5854 38.5326C35.518 37.8451 35.0971 37.245 34.4804 36.9467L33.537 36.3486L34.1654 32.8657C34.1654 32.8657 36.8129 36.0107 36.8744 36.0908C37.4223 36.8032 37.6098 37.0883 37.559 37.4946ZM27.4272 42.0341C27.6166 41.4638 27.7045 40.8832 27.6899 40.2929L28.0307 34.0351L32.3691 32.2573L31.5805 36.6254C31.5781 36.6371 31.5756 36.6493 31.5741 36.6611L30.9218 40.2729C30.8368 40.6469 30.7626 41.2143 30.5292 41.5224L24.1909 49.9413H23.6684L27.4272 42.0341ZM5.06591 58.764C5.06591 58.0331 5.66063 57.4384 6.39208 57.4384H14.0478C14.7793 57.4384 15.3745 58.0331 15.3745 58.764V62.1239H5.06591V58.764ZM17.25 58.764V53.1435C17.25 52.412 17.8452 51.8173 18.5766 51.8173H26.2324C26.9638 51.8173 27.5585 52.412 27.5585 53.1435V62.1239H17.2504V58.764H17.25ZM51.9271 37.9467V62.1239H41.619V56.4999C41.619 55.9818 41.1991 55.5619 40.6811 55.5619C40.1625 55.5619 39.7426 55.9818 39.7426 56.4999V62.1239H29.4345V47.1049C29.4345 46.3739 30.0292 45.7792 30.7607 45.7792H38.4164C39.1479 45.7792 39.7426 46.3739 39.7426 47.1049V51.807C39.7426 52.3251 40.1625 52.745 40.6806 52.745C41.1991 52.745 41.6186 52.3251 41.6186 51.807V37.9467C41.6186 37.2153 42.2138 36.6205 42.9452 36.6205H43.9784C43.9813 36.6205 43.9848 36.621 43.9882 36.621C43.9911 36.621 43.9945 36.6205 43.9975 36.6205H50.6005C51.3319 36.6205 51.9271 37.2157 51.9271 37.9467ZM42.9452 34.7446C41.1796 34.7446 39.7431 36.1811 39.7431 37.9467V44.1918C39.4071 44.0385 39.0409 43.9413 38.6557 43.913L39.4208 37.7255C39.5712 36.5195 38.956 35.7201 38.3612 34.9467C38.2983 34.8647 34.6523 30.5356 34.6523 30.5356L36.8891 23.7729L43.0502 20.0297V34.7446H42.9452ZM44.9262 9.09031V3.30078H54.8495L52.7123 5.18261C52.4213 5.43895 52.2543 5.80809 52.2543 6.19579C52.2543 6.58348 52.4213 6.95262 52.7123 7.20897L54.8495 9.0908H44.9262V9.09031Z" fill="#457AF5"/>
</svg>
