<svg width="101" height="35" viewBox="0 0 101 35" fill="none" xmlns="http://www.w3.org/2000/svg">
<g clip-path="url(#clip0_113_484)">
<path d="M43.0405 18.0578C43.0405 22.7425 39.3461 26.1945 34.8123 26.1945C30.2784 26.1945 26.584 22.7425 26.584 18.0578C26.584 13.3402 30.2784 9.92114 34.8123 9.92114C39.3461 9.92114 43.0405 13.3402 43.0405 18.0578ZM39.4386 18.0578C39.4386 15.1304 37.2974 13.1274 34.8123 13.1274C32.3271 13.1274 30.1859 15.1304 30.1859 18.0578C30.1859 20.9559 32.3271 22.9883 34.8123 22.9883C37.2974 22.9883 39.4386 20.9523 39.4386 18.0578Z" fill="#EA4335"/>
<path d="M60.7915 18.0578C60.7915 22.7425 57.0971 26.1945 52.5632 26.1945C48.0294 26.1945 44.335 22.7425 44.335 18.0578C44.335 13.3438 48.0294 9.92114 52.5632 9.92114C57.0971 9.92114 60.7915 13.3402 60.7915 18.0578ZM57.1895 18.0578C57.1895 15.1304 55.0483 13.1274 52.5632 13.1274C50.0781 13.1274 47.9369 15.1304 47.9369 18.0578C47.9369 20.9559 50.0781 22.9883 52.5632 22.9883C55.0483 22.9883 57.1895 20.9523 57.1895 18.0578Z" fill="#FBBC05"/>
<path d="M77.8029 10.4127V25.0206C77.8029 31.0296 74.2306 33.4838 70.0073 33.4838C66.0319 33.4838 63.6392 30.8461 62.7369 28.6891L65.8729 27.3941C66.4313 28.7184 67.7996 30.2812 70.0036 30.2812C72.707 30.2812 74.3822 28.6267 74.3822 25.5122V24.3419H74.2565C73.4503 25.3287 71.8971 26.1908 69.9371 26.1908C65.8359 26.1908 62.0786 22.6471 62.0786 18.0872C62.0786 13.4942 65.8359 9.92114 69.9371 9.92114C71.8934 9.92114 73.4466 10.7832 74.2565 11.7407H74.3822V10.4164H77.8029V10.4127ZM74.6374 18.0872C74.6374 15.2221 72.7107 13.1274 70.2588 13.1274C67.7737 13.1274 65.6917 15.2221 65.6917 18.0872C65.6917 20.9229 67.7737 22.9883 70.2588 22.9883C72.7107 22.9883 74.6374 20.9229 74.6374 18.0872Z" fill="#4285F4"/>
<path d="M83.4424 1.85059V25.6957H79.9292V1.85059H83.4424Z" fill="#34A853"/>
<path d="M97.1329 20.7358L99.9287 22.5847C99.0263 23.9091 96.8519 26.1908 93.0946 26.1908C88.435 26.1908 84.9551 22.6178 84.9551 18.0542C84.9551 13.2154 88.4646 9.91748 92.6915 9.91748C96.948 9.91748 99.03 13.2778 99.7105 15.0937L100.084 16.0182L89.1191 20.5231C89.9586 22.1555 91.264 22.9883 93.0946 22.9883C94.9289 22.9883 96.201 22.0932 97.1329 20.7358ZM88.5274 17.8084L95.8571 14.7892C95.454 13.7731 94.241 13.065 92.8135 13.065C90.983 13.065 88.435 14.6682 88.5274 17.8084Z" fill="#EA4335"/>
<path d="M13.2861 15.9411V12.4891H25.0128C25.1274 13.0907 25.1866 13.8024 25.1866 14.5728C25.1866 17.1627 24.4728 20.3653 22.1726 22.6471C19.9353 24.9582 17.0767 26.1908 13.2898 26.1908C6.27081 26.1908 0.368652 20.5194 0.368652 13.5566C0.368652 6.59383 6.27081 0.922363 13.2898 0.922363C17.1728 0.922363 19.939 2.43378 22.0173 4.40375L19.5618 6.83962C18.0714 5.45293 16.0523 4.3744 13.2861 4.3744C8.16054 4.3744 4.15181 8.47209 4.15181 13.5566C4.15181 18.6411 8.16054 22.7388 13.2861 22.7388C16.6107 22.7388 18.5041 21.4145 19.7171 20.2112C20.7008 19.2354 21.348 17.8414 21.6031 15.9374L13.2861 15.9411Z" fill="#4285F4"/>
</g>
<defs>
<clipPath id="clip0_113_484">
<rect width="100.588" height="33.75" fill="white" transform="translate(0.235352 0.75)"/>
</clipPath>
</defs>
</svg>
