<svg width="130" height="29" viewBox="0 0 130 29" fill="none" xmlns="http://www.w3.org/2000/svg">
<g clip-path="url(#clip0_113_501)">
<path d="M46.0083 16.7082L45.2383 18.8764H45.1742C45.0458 18.3875 44.8106 17.6435 44.4256 16.7507L40.298 6.44095H36.2559V22.8728H38.9292V12.7331C38.9292 12.0954 38.9292 11.3726 38.9078 10.4798C38.8864 10.0334 38.8437 9.69331 38.8223 9.43822H38.8864C39.0148 10.0759 39.1645 10.5436 39.2714 10.8412L44.2331 22.8303H46.1152L51.0342 10.7349C51.1411 10.4586 51.248 9.90588 51.355 9.43822H51.4191C51.355 10.6499 51.3122 11.734 51.2908 12.393V22.809H54.1352V6.39843H50.2428L46.0083 16.7082ZM56.83 11.0325H59.6103V22.809H56.83V11.0325ZM58.2415 6.05832C57.771 6.05832 57.386 6.22837 57.0652 6.52598C56.7444 6.82358 56.5733 7.20621 56.5733 7.67387C56.5733 8.12027 56.7444 8.5029 57.0652 8.8005C57.386 9.0981 57.771 9.24691 58.2415 9.24691C58.712 9.24691 59.1184 9.07685 59.4178 8.8005C59.7386 8.5029 59.9097 8.12027 59.9097 7.67387C59.9097 7.22747 59.7386 6.84483 59.4178 6.52598C59.1398 6.22837 58.7334 6.05832 58.2415 6.05832ZM69.4696 10.9262C68.9563 10.8199 68.4217 10.7562 67.9084 10.7562C66.6465 10.7562 65.4917 11.0325 64.5292 11.5852C63.5668 12.1379 62.7969 12.9032 62.305 13.8597C61.7917 14.8376 61.5351 15.9642 61.5351 17.2609C61.5351 18.3875 61.7917 19.3866 62.2836 20.3007C62.7755 21.1935 63.4599 21.9162 64.3795 22.4052C65.2564 22.8941 66.283 23.1492 67.4379 23.1492C68.7638 23.1492 69.8973 22.8728 70.7956 22.3626L70.817 22.3414V19.7905L70.71 19.8755C70.3037 20.1731 69.8332 20.4282 69.3627 20.577C68.8708 20.7471 68.4217 20.8321 68.0367 20.8321C66.9246 20.8321 66.0477 20.5133 65.4275 19.8118C64.7859 19.1315 64.4651 18.1962 64.4651 17.0271C64.4651 15.8154 64.7859 14.8588 65.4489 14.1573C66.1119 13.4558 66.9887 13.0945 68.0581 13.0945C68.9563 13.0945 69.876 13.3921 70.71 13.9873L70.817 14.0723V11.3726L70.7956 11.3514C70.432 11.2026 70.0257 11.0325 69.4696 10.9262ZM78.6446 10.8412C77.9602 10.8412 77.3186 11.0538 76.7625 11.5002C76.292 11.8828 75.9712 12.4355 75.6932 13.0945H75.6718V11.0325H72.8915V22.809H75.6718V16.7932C75.6718 15.7729 75.8857 14.9226 76.3562 14.3061C76.8267 13.6684 77.4255 13.3496 78.1527 13.3496C78.4093 13.3496 78.6659 13.4133 78.9867 13.4558C79.2862 13.5409 79.5 13.6259 79.6497 13.7322L79.7567 13.8172V11.0538L79.6925 11.0325C79.5 10.905 79.1151 10.8412 78.6446 10.8412ZM86.2155 10.7774C84.2693 10.7774 82.7081 11.3514 81.6173 12.478C80.5052 13.6046 79.9705 15.1564 79.9705 17.1121C79.9705 18.9402 80.5266 20.4282 81.5959 21.5124C82.6653 22.5752 84.1196 23.1279 85.9375 23.1279C87.8409 23.1279 89.3594 22.554 90.4501 21.4061C91.5622 20.2582 92.0969 18.7276 92.0969 16.8358C92.0969 14.9651 91.5836 13.4771 90.5356 12.393C89.5305 11.3089 88.0548 10.7774 86.2155 10.7774ZM88.4397 19.833C87.9264 20.492 87.1137 20.8109 86.1086 20.8109C85.1034 20.8109 84.2907 20.492 83.7132 19.7905C83.1358 19.1315 82.8578 18.175 82.8578 16.9633C82.8578 15.7091 83.1572 14.7525 83.7132 14.0723C84.2907 13.3921 85.082 13.052 86.0872 13.052C87.071 13.052 87.8409 13.3708 88.3969 14.0298C88.953 14.6888 89.2524 15.6453 89.2524 16.8995C89.2096 18.175 88.9744 19.1741 88.4397 19.833ZM98.2991 15.9217C97.4222 15.5603 96.8661 15.284 96.6095 15.0501C96.3956 14.8376 96.2887 14.54 96.2887 14.1573C96.2887 13.8385 96.417 13.5196 96.7378 13.307C97.0586 13.0945 97.4222 12.9882 97.9569 12.9882C98.4274 12.9882 98.9193 13.0732 99.3898 13.2008C99.8603 13.3283 100.288 13.5196 100.63 13.7747L100.737 13.8597V11.2663L100.673 11.2451C100.352 11.1175 99.9244 10.99 99.4112 10.8837C98.8979 10.7987 98.4274 10.7562 98.0424 10.7562C96.7164 10.7562 95.6257 11.075 94.7702 11.7765C93.9148 12.4355 93.5084 13.3283 93.5084 14.3699C93.5084 14.9226 93.594 15.4115 93.7864 15.8154C93.9789 16.2193 94.2569 16.6019 94.6419 16.9208C95.0269 17.2184 95.5829 17.5585 96.3529 17.8774C96.9945 18.1537 97.4864 18.3663 97.7858 18.5363C98.0852 18.7064 98.2777 18.8977 98.4274 19.0465C98.5343 19.2166 98.5985 19.4291 98.5985 19.7055C98.5985 20.492 97.9996 20.8746 96.7806 20.8746C96.3101 20.8746 95.8182 20.7896 95.2407 20.5983C94.6633 20.407 94.1286 20.1306 93.6795 19.8118L93.5726 19.7267V22.4264L93.6367 22.4477C94.0431 22.639 94.535 22.7665 95.1338 22.9153C95.7326 23.0216 96.2673 23.1066 96.7378 23.1066C98.1707 23.1066 99.347 22.7878 100.181 22.0863C101.037 21.4061 101.486 20.5345 101.486 19.4079C101.486 18.6214 101.272 17.9199 100.801 17.3884C100.181 16.8783 99.4112 16.3468 98.2991 15.9217ZM108.821 10.7774C106.875 10.7774 105.314 11.3514 104.223 12.478C103.132 13.6046 102.576 15.1564 102.576 17.1121C102.576 18.9402 103.132 20.4282 104.202 21.5124C105.271 22.5752 106.725 23.1279 108.543 23.1279C110.447 23.1279 111.965 22.554 113.056 21.4061C114.168 20.2582 114.703 18.7276 114.703 16.8358C114.703 14.9651 114.189 13.4771 113.142 12.393C112.136 11.3089 110.661 10.7774 108.821 10.7774ZM111.024 19.833C110.511 20.492 109.698 20.8109 108.693 20.8109C107.666 20.8109 106.875 20.492 106.298 19.7905C105.72 19.1315 105.442 18.175 105.442 16.9633C105.442 15.7091 105.742 14.7525 106.298 14.0723C106.875 13.3921 107.666 13.052 108.672 13.052C109.634 13.052 110.425 13.3708 110.981 14.0298C111.537 14.6888 111.837 15.6453 111.837 16.8995C111.837 18.175 111.559 19.1741 111.024 19.833ZM129.567 13.307V11.0325H126.765V7.54632L126.679 7.56758L124.027 8.3541L123.963 8.37536V11.0325H119.771V9.54451C119.771 8.86427 119.943 8.33284 120.242 7.99273C120.541 7.65261 120.99 7.48255 121.547 7.48255C121.932 7.48255 122.338 7.56758 122.787 7.7589L122.894 7.82267V5.4206L122.83 5.39934C122.445 5.2718 121.931 5.18677 121.269 5.18677C120.434 5.18677 119.707 5.37808 119.044 5.69694C118.381 6.05832 117.889 6.54723 117.526 7.20621C117.162 7.84393 116.97 8.56667 116.97 9.39571V11.0325H115.024V13.2858H116.97V22.809H119.771V13.307H123.963V19.3654C123.963 21.8525 125.14 23.1066 127.492 23.1066C127.877 23.1066 128.283 23.0429 128.668 22.9791C129.075 22.8941 129.374 22.7878 129.545 22.7028L129.567 22.6815V20.407L129.46 20.492C129.289 20.5983 129.139 20.6833 128.882 20.7471C128.668 20.8109 128.476 20.8321 128.326 20.8321C127.77 20.8321 127.385 20.7046 127.107 20.3857C126.85 20.0881 126.722 19.5992 126.722 18.8764V13.307H129.567Z" fill="#737373"/>
<path d="M0.411621 0.914062H13.5217V13.9448H0.411621V0.914062Z" fill="#F25022"/>
<path d="M14.8906 0.914062H28.0008V13.9448H14.8906V0.914062Z" fill="#7FBA00"/>
<path d="M0.411621 15.3052H13.5217V28.3359H0.411621V15.3052Z" fill="#00A4EF"/>
<path d="M14.8906 15.3052H28.0008V28.3359H14.8906V15.3052Z" fill="#FFB900"/>
</g>
<defs>
<clipPath id="clip0_113_501">
<rect width="129.176" height="27.4219" fill="white" transform="translate(0.411621 0.914062)"/>
</clipPath>
</defs>
</svg>
