<svg width="104" height="37" viewBox="0 0 104 37" fill="none" xmlns="http://www.w3.org/2000/svg">
<g clip-path="url(#clip0_113_524)">
<path fill-rule="evenodd" clip-rule="evenodd" d="M91.5747 17.6525L84.9706 29.0793L79.336 29.1017L91.5747 7.5939L103.768 29.1017H98.0438L91.5747 17.6513V17.6525ZM73.7919 24.1273H80.1026L77.1726 29.1017H68.9473L68.9696 23.0448V7.72614H73.8153L73.793 24.1273H73.7919ZM56.4844 7.72726C62.5016 7.74967 67.3696 12.5234 67.3473 18.4246C67.325 24.3044 62.457 29.0793 56.4386 29.0793C50.4437 29.0569 45.5757 24.2831 45.5757 18.3809C45.598 12.501 50.466 7.72726 56.4844 7.72726ZM56.462 24.106C59.6843 24.106 62.2751 21.5634 62.2751 18.4246C62.2985 15.2869 59.6843 12.7218 56.4844 12.7218C53.2833 12.6994 50.6691 15.2644 50.6691 18.4033C50.6468 21.541 53.261 24.106 56.4609 24.106H56.462ZM36.6062 16.7268C36.5392 15.8416 36.3127 14.6705 35.9747 13.5443C35.279 11.2181 34.0696 9.0795 32.4366 7.28798C31.5797 6.36012 30.6112 5.49725 29.1675 4.48086C28.0669 3.93535 26.9847 3.35306 25.9229 2.73496C25.2244 2.33714 24.3898 1.84968 23.2863 1.49669C21.9779 1.18651 20.6405 1.01635 19.2964 0.989055C17.991 0.944231 16.6822 1.05629 15.4203 1.29834C14.0903 1.5191 12.9857 1.87209 11.5208 2.2262C8.20699 3.66282 5.63854 5.82895 3.42936 8.7033C-4.27824 19.5115 2.68627 34.6532 15.5553 36.4428C17.6741 36.7308 19.7929 36.6198 21.7979 36.1559L23.2183 35.7805C23.2629 35.7581 23.331 35.7357 23.3756 35.7357L24.999 35.1171C25.0883 35.0723 25.1563 35.0499 25.2467 35.0062L25.9229 34.6969C27.2202 34.0538 28.438 33.2603 29.5513 32.3324C28.5379 33.2572 27.4357 34.0789 26.2609 34.7854L26.3279 34.8302C26.5544 34.763 26.7563 34.6969 26.9817 34.6532C26.9817 34.6532 26.9817 35.0062 26.9371 34.94C26.5767 35.2056 27.1401 34.9625 27.8609 34.5859C28.5828 34.2105 29.2813 33.7455 29.9117 33.2154C30.8366 32.4422 31.6478 31.6018 32.797 30.2324C33.9685 28.1761 35.4346 26.3853 36.1108 23.976C36.3362 23.335 36.5381 22.5842 36.6742 21.8099C36.8081 21.0367 36.8996 20.2411 36.8996 19.423C36.8773 18.605 36.7869 17.7645 36.6062 16.7268ZM19.9279 34.8963C23.8721 34.2766 27.1848 32.0892 29.8894 29.105C30.6336 28.0214 31.2193 27.0263 31.9401 25.9438C32.8416 23.7329 32.7747 21.7662 33.067 20.3744C33.4285 17.853 32.5716 15.8203 31.8508 13.6541C30.7462 11.1339 29.2813 9.25576 26.7117 7.79673C20.2203 3.77376 11.3858 4.89997 7.17158 10.9131C7.14926 10.9131 7.03546 11.0678 6.81008 11.3771C7.10352 10.1399 7.84772 9.41041 8.59081 8.70218C10.8 6.89016 13.3696 5.45243 16.2995 4.74645C19.6133 4.39233 22.9025 4.74645 25.8548 6.18306C30.2732 8.70218 33.2031 12.6602 33.9462 17.3443V21.6777C33.0224 28.7733 26.9371 34.1668 19.9279 34.8963ZM36.1331 18.7596C35.9747 8.3716 25.6752 1.36446 15.6457 2.77978C12.7157 3.50818 9.51465 4.9672 7.23852 7.0011C6.13393 7.7295 5.61622 9.07871 4.51163 10.1612C0.0932641 16.6383 0.8609 24.9274 6.35931 29.9679C7.06461 30.6682 7.81771 31.3183 8.61313 31.9133C4.01624 29.1488 1.94206 24.97 1.22129 19.8881C1.22129 18.0749 1.58167 16.2842 1.96438 14.4722C4.53506 6.53605 12.6254 0.767175 21.4387 2.2262C22.9036 2.58031 24.3686 2.95572 25.857 3.30983C27.7047 4.03822 29.5301 5.12185 30.9951 6.55959C32.46 7.99508 33.5646 9.80822 34.6692 11.5978C35.4123 13.0356 35.7738 14.8476 36.1342 16.2842C36.2011 17.1022 36.2011 17.9427 36.1342 18.7607L36.1331 18.7596Z" fill="black"/>
<path fill-rule="evenodd" clip-rule="evenodd" d="M26.9826 18.9153C26.9826 23.3809 23.2415 27.0061 18.6212 27.0061C14.002 27.0061 10.2598 23.3809 10.2598 18.9153C10.2598 14.4508 14.0009 10.8257 18.6212 10.8257C23.2415 10.8257 26.9826 14.4508 26.9826 18.9165V18.9153Z" fill="white"/>
<path fill-rule="evenodd" clip-rule="evenodd" d="M27.0283 17.5448C26.9156 16.9262 26.7349 16.4399 26.5552 15.7552C25.8334 14.2514 24.7745 13.0803 23.3765 12.0852C18.1481 8.61583 10.9582 11.953 10.1928 17.8776C9.90045 20.2208 10.7339 22.4755 12.2212 24.2001C11.7704 23.735 11.275 23.2498 10.937 22.6962L10.8923 22.7411C10.937 22.8733 11.1177 22.9618 11.1624 23.0941C11.1624 23.0941 10.9816 23.0941 11.0274 23.0716C10.8923 22.9181 11.005 23.1613 11.207 23.4919C11.3877 23.8236 11.6131 24.134 11.8831 24.4208C12.267 24.8411 12.672 25.2165 13.3481 25.7252C14.3411 26.2329 15.2192 26.8963 16.3684 27.2056C16.6842 27.2952 17.0446 27.3826 17.4061 27.4487C17.7888 27.516 18.1492 27.5384 18.5553 27.5384C18.938 27.5384 19.3442 27.4936 19.8395 27.4039C20.3504 27.3435 20.8553 27.2404 21.3492 27.0957C22.4522 26.7623 23.4683 26.1883 24.3249 25.4148C24.7533 25.0181 25.3625 24.5094 25.8345 23.846C26.2183 23.0952 26.2629 22.7187 26.4437 22.387C26.6233 22.0553 26.8487 21.6798 27.0071 21.1711C27.1363 20.5675 27.2117 19.9536 27.2325 19.3367C27.2102 18.7181 27.1656 18.1208 27.0294 17.5459L27.0283 17.5448ZM21.6638 13.4344C22.4303 13.876 22.543 13.9421 22.1369 13.6552C22.7238 13.7874 23.0841 14.1191 23.4445 14.4508C24.3237 15.4459 25.0445 16.617 25.4049 17.965C25.608 19.4902 25.4495 21.0153 24.7968 22.3645C23.6253 24.4197 21.7542 25.7902 19.5227 26.1656C19.275 26.1656 19.005 26.1656 18.7562 26.188C19.3877 26.0771 19.7938 25.6793 20.943 25.2591C22.1815 24.8175 23.5795 22.7624 24.2568 21.5678C26.2395 18.318 23.8953 15.3126 21.6638 13.4344ZM17.4273 26.2093C14.0019 25.8563 11.3643 23.0492 11.0039 19.7995C11.3186 21.6126 12.4008 23.0044 13.8658 24.2427C14.3846 24.5744 15.15 25.0383 15.6689 25.37C16.5481 25.7017 17.0658 26.0558 17.9227 26.2105H17.4273V26.2093ZM26.6445 20.3082C26.4883 20.994 26.3299 21.6563 26.1714 22.3421C25.8334 23.1826 25.338 24.0443 24.6618 24.729C23.9857 25.4148 23.1288 25.9449 22.273 26.4536C21.5969 26.8066 20.74 26.9837 20.0415 27.1596C19.6354 27.2044 19.1623 27.0274 18.7562 27.0061C23.7603 26.8727 27.1856 22.2099 26.4426 17.5896C26.081 16.2415 25.3603 15.0694 24.4811 13.8984C24.1207 13.3896 23.4211 13.0803 22.9034 12.5716C19.7704 10.6049 15.6242 11.0027 13.2577 13.5891C12.9259 13.9289 12.6169 14.2906 12.3328 14.6716C13.5958 12.8147 15.6242 11.5115 18.0577 11.135C18.9146 11.1125 19.7938 11.2683 20.6496 11.4229C24.4364 12.5716 27.2537 16.2416 26.6445 20.3093V20.3082Z" fill="#D7DF23"/>
</g>
<defs>
<clipPath id="clip0_113_524">
<rect width="103.765" height="35.8594" fill="white" transform="translate(0.117676 0.945312)"/>
</clipPath>
</defs>
</svg>
