<svg width="90" height="35" viewBox="0 0 90 35" fill="none" xmlns="http://www.w3.org/2000/svg">
<g clip-path="url(#clip0_113_509)">
<path d="M73.6557 33.0656C82.1035 33.0656 88.9771 26.108 88.9771 17.5574C88.9771 9.00182 82.1035 2.04932 73.6557 2.04932C65.2063 2.04932 58.3344 9.00182 58.3344 17.5574C58.3344 26.108 65.2063 33.0656 73.6557 33.0656ZM73.6557 12.0275C76.6663 12.0275 79.1181 14.5081 79.1181 17.5558C79.1181 20.6034 76.6646 23.0806 73.6541 23.0806C70.6418 23.0806 68.1934 20.6034 68.1934 17.5541C68.1934 14.5031 70.6435 12.0241 73.6541 12.0241L73.6557 12.0275ZM15.8507 33.0656C24.2984 33.0656 31.1721 26.108 31.1721 17.5574C31.1721 9.00182 24.2984 2.04932 15.8507 2.04932C7.40462 2.04932 0.529297 9.00182 0.529297 17.5574C0.529297 26.108 7.40462 33.0656 15.8507 33.0656ZM15.8507 12.0275C18.8629 12.0275 21.313 14.5081 21.313 17.5558C21.313 20.6034 18.8629 23.0806 15.8507 23.0806C12.8401 23.0806 10.3917 20.6034 10.3917 17.5541C10.3917 14.5031 12.8418 12.0241 15.8507 12.0241V12.0275ZM44.7448 11.6782L40.041 2.25182H29.0274L39.3144 22.8731V32.5813H50.1769V22.8731L60.4639 2.25182H49.4453L44.7465 11.6782H44.7448Z" fill="#EE2E24"/>
</g>
<defs>
<clipPath id="clip0_113_509">
<rect width="88.9412" height="33.75" fill="white" transform="translate(0.529297 0.75)"/>
</clipPath>
</defs>
</svg>
