<svg width="22" height="21" viewBox="0 0 22 21" fill="none" xmlns="http://www.w3.org/2000/svg">
<path d="M16.2028 9.98313L6.95791 2.76232C6.93375 2.7433 6.90472 2.73148 6.87415 2.72822C6.84358 2.72496 6.81271 2.73038 6.78508 2.74387C6.75745 2.75737 6.73419 2.77838 6.71797 2.80449C6.70174 2.83061 6.69322 2.86077 6.69336 2.89152V4.47677C6.69336 4.57726 6.74053 4.67365 6.81846 4.73517L14.2013 10.4999L6.81846 16.2647C6.73848 16.3262 6.69336 16.4226 6.69336 16.5231V18.1083C6.69336 18.2457 6.85127 18.3216 6.95791 18.2375L16.2028 11.0167C16.2814 10.9554 16.345 10.877 16.3887 10.7875C16.4324 10.6979 16.4551 10.5996 16.4551 10.4999C16.4551 10.4003 16.4324 10.3019 16.3887 10.2124C16.345 10.1228 16.2814 10.0444 16.2028 9.98313Z" fill="#FCFCFD"/>
</svg>
