<svg width="21" height="21" viewBox="0 0 21 21" fill="none" xmlns="http://www.w3.org/2000/svg">
<path d="M15.7028 9.98325L6.45791 2.76244C6.43375 2.74342 6.40472 2.7316 6.37415 2.72834C6.34358 2.72508 6.31271 2.7305 6.28508 2.744C6.25745 2.75749 6.23419 2.7785 6.21797 2.80462C6.20174 2.83073 6.19322 2.86089 6.19336 2.89164V4.4769C6.19336 4.57738 6.24053 4.67377 6.31846 4.73529L13.7013 10.5L6.31846 16.2648C6.23848 16.3263 6.19336 16.4227 6.19336 16.5232V18.1085C6.19336 18.2459 6.35127 18.3217 6.45791 18.2377L15.7028 11.0168C15.7814 10.9556 15.845 10.8771 15.8887 10.7876C15.9324 10.698 15.9551 10.5997 15.9551 10.5C15.9551 10.4004 15.9324 10.302 15.8887 10.2125C15.845 10.1229 15.7814 10.0445 15.7028 9.98325Z" fill="#FCFCFD"/>
</svg>
