<svg width="224" height="45" viewBox="0 0 224 45" fill="none" xmlns="http://www.w3.org/2000/svg">
<g clip-path="url(#clip0_113_268)">
<path opacity="0.1" fill-rule="evenodd" clip-rule="evenodd" d="M0 22.9502C0 10.7999 9.84974 0.950195 22 0.950195C34.1503 0.950195 44 10.7999 44 22.9502C44 35.1005 34.1503 44.9502 22 44.9502C9.84974 44.9502 0 35.1005 0 22.9502Z" fill="#457AF5"/>
<path fill-rule="evenodd" clip-rule="evenodd" d="M22.001 11.2168C18.8144 11.2168 18.4145 11.2307 17.1629 11.2877C15.9138 11.3449 15.0612 11.5426 14.3151 11.8328C13.5434 12.1325 12.8888 12.5334 12.2366 13.1858C11.5839 13.838 11.183 14.4926 10.8824 15.2641C10.5915 16.0104 10.3935 16.8633 10.3372 18.1119C10.2813 19.3635 10.2666 19.7636 10.2666 22.9503C10.2666 26.1369 10.2808 26.5356 10.3375 27.7871C10.3949 29.0362 10.5927 29.8889 10.8826 30.6349C11.1825 31.4067 11.5834 32.0613 12.2359 32.7135C12.8878 33.3661 13.5424 33.768 14.3137 34.0677C15.0602 34.3579 15.9131 34.5556 17.162 34.6128C18.4135 34.6698 18.8132 34.6837 21.9996 34.6837C25.1864 34.6837 25.5851 34.6698 26.8367 34.6128C28.0858 34.5556 28.9394 34.3579 29.686 34.0677C30.4574 33.768 31.1111 33.3661 31.763 32.7135C32.4157 32.0613 32.8166 31.4067 33.1173 30.6352C33.4057 29.8889 33.6037 29.036 33.6624 27.7874C33.7186 26.5358 33.7333 26.1369 33.7333 22.9503C33.7333 19.7636 33.7186 19.3637 33.6624 18.1122C33.6037 16.863 33.4057 16.0104 33.1173 15.2644C32.8166 14.4926 32.4157 13.838 31.763 13.1858C31.1104 12.5331 30.4577 12.1323 29.6852 11.8328C28.9372 11.5426 28.0841 11.3449 26.835 11.2877C25.5834 11.2307 25.185 11.2168 21.9974 11.2168H22.001ZM20.9484 13.3312C21.2608 13.3307 21.6094 13.3312 22.001 13.3312C25.1338 13.3312 25.5051 13.3425 26.7423 13.3987C27.8863 13.451 28.5072 13.6422 28.9208 13.8028C29.4683 14.0154 29.8587 14.2697 30.2692 14.6803C30.6798 15.091 30.9341 15.4821 31.1472 16.0297C31.3078 16.4428 31.4992 17.0637 31.5513 18.2077C31.6075 19.4446 31.6197 19.8162 31.6197 22.9475C31.6197 26.0789 31.6075 26.4505 31.5513 27.6874C31.499 28.8314 31.3078 29.4523 31.1472 29.8654C30.9345 30.4129 30.6798 30.8028 30.2692 31.2133C29.8585 31.6239 29.4686 31.8782 28.9208 32.0908C28.5077 32.2522 27.8863 32.4428 26.7423 32.4951C25.5054 32.5514 25.1338 32.5636 22.001 32.5636C18.8679 32.5636 18.4966 32.5514 17.2597 32.4951C16.1157 32.4423 15.4948 32.2512 15.0809 32.0906C14.5334 31.8779 14.1423 31.6237 13.7316 31.213C13.3209 30.8023 13.0667 30.4122 12.8535 29.8644C12.6929 29.4513 12.5015 28.8304 12.4495 27.6864C12.3932 26.4495 12.382 26.0779 12.382 22.9446C12.382 19.8113 12.3932 19.4417 12.4495 18.2048C12.5018 17.0608 12.6929 16.4399 12.8535 16.0263C13.0662 15.4787 13.3209 15.0876 13.7316 14.6769C14.1423 14.2662 14.5334 14.012 15.0809 13.7989C15.4945 13.6375 16.1157 13.4469 17.2597 13.3943C18.3421 13.3454 18.7616 13.3307 20.9484 13.3283V13.3312ZM28.2642 15.2795C27.4869 15.2795 26.8562 15.9094 26.8562 16.687C26.8562 17.4643 27.4869 18.095 28.2642 18.095C29.0416 18.095 29.6722 17.4643 29.6722 16.687C29.6722 15.9097 29.0416 15.2795 28.2642 15.2795ZM22.0011 16.9246C18.6734 16.9246 15.9754 19.6226 15.9754 22.9502C15.9754 26.2779 18.6734 28.9746 22.0011 28.9746C25.3287 28.9746 28.0257 26.2779 28.0257 22.9502C28.0257 19.6226 25.3287 16.9246 22.0011 16.9246ZM22.001 19.0391C24.1609 19.0391 25.9122 20.79 25.9122 22.9502C25.9122 25.1102 24.1609 26.8614 22.001 26.8614C19.8408 26.8614 18.0899 25.1102 18.0899 22.9502C18.0899 20.79 19.8408 19.0391 22.001 19.0391Z" fill="#457AF5"/>
<path opacity="0.1" fill-rule="evenodd" clip-rule="evenodd" d="M60 22.9502C60 10.7999 69.8497 0.950195 82 0.950195C94.1503 0.950195 104 10.7999 104 22.9502C104 35.1005 94.1503 44.9502 82 44.9502C69.8497 44.9502 60 35.1005 60 22.9502Z" fill="#457AF5"/>
<g clip-path="url(#clip1_113_268)">
<path d="M89.7413 30.699H86.4873V25.5929C86.4873 24.3754 86.4619 22.8106 84.7858 22.8106C83.089 22.8106 82.8305 24.1313 82.8305 25.5029V30.6983H79.5724V20.1995H82.7019V21.6316H82.7439C83.1811 20.8045 84.2447 19.9348 85.8314 19.9348C89.1321 19.9348 89.7447 22.108 89.7447 24.9336V30.6983L89.7413 30.699ZM75.8916 18.7647C75.6429 18.7648 75.3966 18.7158 75.1669 18.6206C74.9372 18.5254 74.7285 18.3857 74.5528 18.2097C74.3771 18.0337 74.2379 17.8248 74.143 17.5949C74.0482 17.365 73.9997 17.1186 74.0002 16.8699C74.0007 16.4956 74.112 16.1299 74.3203 15.8188C74.5286 15.5078 74.8244 15.2656 75.1704 15.1227C75.5163 14.9798 75.8969 14.9427 76.264 15.016C76.631 15.0894 76.968 15.27 77.2325 15.5349C77.4969 15.7998 77.6769 16.1372 77.7496 16.5044C77.8223 16.8715 77.7845 17.252 77.641 17.5977C77.4974 17.9434 77.2546 18.2388 76.9432 18.4465C76.6319 18.6542 76.2659 18.765 75.8916 18.7647ZM77.5237 30.699H74.2587V20.2002H77.5237V30.699ZM91.3748 11.9502H72.6225C71.7267 11.9502 71 12.659 71 13.5363V32.3648C71 33.2421 71.7267 33.9509 72.6225 33.9509H91.3713C92.2658 33.9509 93 33.2421 93 32.3648V13.5363C93 12.659 92.2658 11.9502 91.3713 11.9502H91.3748Z" fill="#457AF5"/>
</g>
<path opacity="0.1" fill-rule="evenodd" clip-rule="evenodd" d="M120 22.9502C120 10.7999 129.85 0.950195 142 0.950195C154.15 0.950195 164 10.7999 164 22.9502C164 35.1005 154.15 44.9502 142 44.9502C129.85 44.9502 120 35.1005 120 22.9502Z" fill="#457AF5"/>
<path fill-rule="evenodd" clip-rule="evenodd" d="M141.341 18.832L141.387 19.5933L140.618 19.5001C137.817 19.1427 135.37 17.931 133.293 15.8958L132.277 14.886L132.016 15.6317C131.462 17.294 131.816 19.0495 132.97 20.2302C133.585 20.8827 133.447 20.976 132.385 20.5876C132.016 20.4633 131.692 20.3701 131.662 20.4167C131.554 20.5254 131.923 21.9392 132.216 22.4984C132.616 23.2752 133.431 24.0365 134.324 24.487L135.078 24.8443L134.185 24.8599C133.324 24.8599 133.293 24.8754 133.385 25.2017C133.693 26.2115 134.909 27.2834 136.263 27.7495L137.217 28.0758L136.386 28.5729C135.155 29.2876 133.708 29.6915 132.262 29.7226C131.569 29.7381 131 29.8002 131 29.8468C131 30.0022 132.877 30.8722 133.97 31.214C137.248 32.2238 141.141 31.7888 144.065 30.0643C146.142 28.837 148.22 26.3979 149.189 24.0365C149.712 22.7781 150.236 20.4788 150.236 19.3758C150.236 18.6611 150.282 18.5679 151.144 17.7135C151.651 17.2163 152.128 16.6726 152.221 16.5172C152.375 16.222 152.359 16.222 151.574 16.4861C150.266 16.9522 150.082 16.8901 150.728 16.191C151.205 15.6938 151.775 14.7927 151.775 14.5286C151.775 14.482 151.544 14.5597 151.282 14.6995C151.005 14.8549 150.39 15.0879 149.928 15.2277L149.097 15.4918L148.343 14.9792C147.927 14.6995 147.343 14.3888 147.035 14.2956C146.25 14.0781 145.05 14.1092 144.342 14.3577C142.418 15.0568 141.203 16.859 141.341 18.832Z" fill="#457AF5"/>
<path opacity="0.1" fill-rule="evenodd" clip-rule="evenodd" d="M180 22.9502C180 10.7999 189.85 0.950195 202 0.950195C214.15 0.950195 224 10.7999 224 22.9502C224 35.1005 214.15 44.9502 202 44.9502C189.85 44.9502 180 35.1005 180 22.9502Z" fill="#457AF5"/>
<path fill-rule="evenodd" clip-rule="evenodd" d="M211.168 15.3871C212.178 15.6642 212.973 16.4806 213.243 17.5173C213.733 19.3963 213.733 23.3169 213.733 23.3169C213.733 23.3169 213.733 27.2373 213.243 29.1164C212.973 30.1532 212.178 30.9696 211.168 31.2468C209.338 31.7502 202 31.7502 202 31.7502C202 31.7502 194.662 31.7502 192.832 31.2468C191.822 30.9696 191.027 30.1532 190.757 29.1164C190.267 27.2373 190.267 23.3169 190.267 23.3169C190.267 23.3169 190.267 19.3963 190.757 17.5173C191.027 16.4806 191.822 15.6642 192.832 15.3871C194.662 14.8835 202 14.8835 202 14.8835C202 14.8835 209.338 14.8835 211.168 15.3871ZM199.8 20.0168V27.3501L205.667 23.6836L199.8 20.0168Z" fill="#457AF5"/>
</g>
<defs>
<clipPath id="clip0_113_268">
<rect width="224" height="44" fill="white" transform="translate(0 0.950195)"/>
</clipPath>
<clipPath id="clip1_113_268">
<rect x="71" y="11.9502" width="22" height="22" rx="4" fill="white"/>
</clipPath>
</defs>
</svg>
