<svg width="128" height="30" viewBox="0 0 128 30" fill="none" xmlns="http://www.w3.org/2000/svg">
<g clip-path="url(#clip0_113_531)">
<path d="M45.6875 10.6132V12.2868H45.7391C46.346 11.3908 47.3535 10.3355 49.5868 10.3355C51.3242 10.3355 52.6571 11.213 53.2283 12.5386H53.2798C53.7678 11.8684 54.3271 11.3611 54.9538 11.002C55.6956 10.5762 56.5207 10.3318 57.56 10.3318C59.9122 10.3318 61.9948 11.8499 61.9948 15.6784V22.9393H58.4088V16.1857C58.4088 14.2455 57.7028 13.1236 56.2351 13.1236C55.1601 13.1236 54.3786 13.7975 54.0811 14.6269C53.978 14.912 53.9304 15.3008 53.9304 15.6266V22.9431H50.3445V15.9117C50.3445 14.264 49.6661 13.1199 48.2183 13.1199C47.06 13.1199 46.3341 13.9715 46.0366 14.7009C45.9097 15.012 45.87 15.3711 45.87 15.7081V22.9393H42.2801V10.6132H45.6875ZM80.5035 10.6132V12.9385H80.6027C81.2612 11.1612 82.8241 10.3355 84.1966 10.3355C84.5417 10.3355 84.7321 10.3614 85.0098 10.4133V13.642C84.6805 13.5975 84.3751 13.5531 83.9467 13.5531C82.3917 13.5531 81.3088 14.3973 81.0351 15.7192C80.9756 15.9932 80.9558 16.2894 80.9558 16.63V22.9431H77.2746V10.6132H80.5035ZM90.0079 6.52917V10.4096H93.1178V13.5494H90.0079V18.1814C90.0079 19.681 90.4164 20.4067 91.6302 20.4067C92.2014 20.4067 92.6219 20.3401 92.9869 20.2549L93.0345 22.8579C92.5466 23.0282 91.5073 23.2133 90.4521 23.2133C89.2105 23.2133 88.1752 22.8098 87.5445 22.184C86.8226 21.4694 86.4894 20.2994 86.4894 18.6332V6.52917H90.0079ZM39.781 22.9393H36.211V6.52917H39.781V22.9393ZM30.2609 18.5369C30.2609 18.7628 30.2411 18.9997 30.1736 19.2034C29.8959 20.0587 28.9479 20.7807 27.7658 20.7807C26.7781 20.7807 25.9927 20.2586 25.9927 19.1515C25.9927 17.4594 27.9919 16.9892 30.2648 17.0003V18.5369H30.2609ZM33.827 15.5859C33.827 12.7904 32.5497 10.3355 28.2299 10.3355C26.0125 10.3355 24.2513 10.9168 23.2913 11.4352L23.9934 13.679C24.8701 13.1606 26.2703 12.7348 27.5952 12.7348C29.7888 12.7311 30.1458 13.8938 30.1458 14.638V14.8157C25.3659 14.8083 22.3472 16.3523 22.3472 19.4996C22.3472 21.4213 23.8824 23.2208 26.556 23.2208C28.2021 23.2208 29.5746 22.6098 30.3997 21.6286H30.4791C30.4791 21.6286 31.0265 23.7576 34.0332 22.9431C33.8746 22.0544 33.823 21.1102 33.823 19.9735V15.5859H33.827ZM4.41364 6.52917C4.78254 8.26572 5.82976 13.3087 5.82976 13.3087C6.27007 15.3822 6.67468 17.5557 6.98012 19.2737H7.03565C7.33316 17.4483 7.80123 15.7192 8.30104 13.579L10.0662 6.52917H13.9735L15.6236 13.7605C16.056 15.771 16.4011 17.3224 16.6748 19.1923H16.7264C17.0239 17.3039 17.4126 15.6895 17.8371 13.6235L19.4238 6.52917H23.1723L18.5273 22.9393C15.5681 23.5429 14.4336 22.4321 14.029 20.6696C13.6244 18.9035 12.831 15.5451 12.831 15.5451C12.4225 13.7049 12.1051 12.409 11.883 10.5206H11.8275C11.5101 12.3905 11.1769 13.7012 10.685 15.5414L8.73738 22.9431C5.71473 23.5059 4.66751 22.6728 4.08837 20.4104C3.58856 18.4739 0.470703 6.53288 0.470703 6.53288H4.41364V6.52917ZM71.3245 18.5369C71.3245 18.7628 71.3047 18.9997 71.2373 19.2034C70.9596 20.0587 70.0115 20.7807 68.8294 20.7807C67.8417 20.7807 67.0563 20.2586 67.0563 19.1515C67.0563 17.4594 69.0555 16.9892 71.3285 17.0003V18.5369H71.3245ZM74.8906 15.5859C74.8906 12.7904 73.6133 10.3355 69.2936 10.3355C67.0761 10.3355 65.3149 10.9168 64.355 11.4352L65.0571 13.679C65.9337 13.1606 67.334 12.7348 68.6589 12.7348C70.8485 12.7311 71.2095 13.8938 71.2095 14.638V14.8157C66.4335 14.8083 63.4149 16.3523 63.4149 19.4996C63.4149 21.4213 64.9539 23.2208 67.6236 23.2208C69.2658 23.2208 70.6422 22.6098 71.4634 21.6286H71.5467C71.5467 21.6286 72.0941 23.7576 75.1009 22.9431C74.9422 22.0544 74.8906 21.1102 74.8906 19.9735V15.5859Z" fill="#041E42"/>
<path d="M107.59 17.2876C107.942 17.8869 107.918 18.5558 107.542 18.8612L101.05 23.3114C100.374 23.6942 99.3616 23.2302 98.7882 22.2597C98.2109 21.2854 98.3137 20.199 98.9899 19.8162L106.178 16.5453C106.629 16.3751 107.238 16.6883 107.59 17.2876ZM116.134 17.2876C116.49 16.6883 117.095 16.379 117.546 16.5414L124.738 19.8123C125.414 20.1951 125.513 21.2816 124.94 22.2559C124.363 23.2263 123.346 23.6864 122.674 23.3075L116.182 18.8573C115.81 18.5558 115.782 17.883 116.134 17.2876ZM111.86 19.7002C112.568 19.7002 113.149 20.0559 113.228 20.5238L113.928 28.2487C113.928 29.0143 113.015 29.6406 111.864 29.6406C110.717 29.6406 109.8 29.0143 109.8 28.2487L110.496 20.5238C110.575 20.0559 111.156 19.7002 111.86 19.7002ZM116.182 10.8927L122.674 6.4386C123.346 6.05584 124.363 6.51593 124.94 7.49025C125.513 8.46458 125.414 9.55102 124.738 9.93379L117.546 13.2086C117.095 13.371 116.486 13.0617 116.134 12.4624C115.782 11.8631 115.81 11.1942 116.182 10.8927ZM106.178 13.2086L98.9899 9.93379C98.3177 9.55102 98.2149 8.46458 98.7882 7.49025C99.3616 6.51593 100.378 6.05584 101.05 6.4386L107.542 10.8927C107.918 11.1904 107.942 11.8631 107.59 12.4624C107.238 13.0617 106.629 13.371 106.178 13.2086ZM110.496 9.22625L109.8 1.50126C109.8 0.735725 110.713 0.109375 111.864 0.109375C113.015 0.109375 113.928 0.735725 113.928 1.50126L113.228 9.22625C113.149 9.69021 112.568 10.0498 111.86 10.0498C111.156 10.0498 110.575 9.69021 110.496 9.22625ZM126.695 23.2805V23.0871H126.873C126.933 23.0871 126.972 23.1258 126.972 23.1838C126.972 23.2379 126.933 23.2805 126.873 23.2805H126.695ZM126.549 23.6323C126.549 23.6516 126.565 23.671 126.589 23.671H126.664C126.684 23.671 126.703 23.6516 126.703 23.6323V23.4119H126.826L126.925 23.6439C126.933 23.6594 126.945 23.671 126.96 23.671H127.051C127.079 23.671 127.099 23.6439 127.087 23.6168C127.051 23.5472 127.016 23.4738 126.98 23.4003C127.039 23.381 127.13 23.323 127.13 23.1838C127.13 23.0369 127.008 22.9518 126.885 22.9518H126.589C126.569 22.9518 126.549 22.9712 126.549 22.9905V23.6323ZM126.229 23.3114C126.229 22.9982 126.49 22.743 126.81 22.743C127.13 22.743 127.391 22.9944 127.391 23.3114C127.391 23.6246 127.134 23.8797 126.81 23.8797C126.486 23.8797 126.229 23.6246 126.229 23.3114ZM126.091 23.3114C126.091 23.698 126.411 24.0151 126.81 24.0151C127.206 24.0151 127.53 23.698 127.53 23.3114C127.53 22.9248 127.206 22.6077 126.81 22.6077C126.411 22.6077 126.091 22.9248 126.091 23.3114Z" fill="#FFC124"/>
</g>
<defs>
<clipPath id="clip0_113_531">
<rect width="127.059" height="29.5312" fill="white" transform="translate(0.470703 0.109375)"/>
</clipPath>
</defs>
</svg>
